<svg width="502" height="737" viewBox="0 0 502 737" fill="none" xmlns="http://www.w3.org/2000/svg">
<g filter="url(#filter0_d_363_4271)">
<path fill-rule="evenodd" clip-rule="evenodd" d="M462.047 6H29.9471C29.947 18.3655 19.2258 28.3899 6 28.3915V700.664C6 711.71 14.9543 720.664 26 720.664H466C477.046 720.664 486 711.71 486 700.664V28.3939C485.999 28.3939 485.998 28.3939 485.997 28.3939C472.77 28.3939 462.047 18.3689 462.047 6.00238C462.047 6.00159 462.047 6.00079 462.047 6Z" fill="#FAFAFF"/>
<path d="M462.047 6H462.547V5.5H462.047V6ZM29.9471 6V5.5H29.4471L29.4471 6L29.9471 6ZM6 28.3915L5.99994 27.8915L5.5 27.8915V28.3915H6ZM486 28.3939H486.5V27.8939H486V28.3939ZM462.047 5.5H29.9471V6.5H462.047V5.5ZM29.4471 6C29.447 18.0582 18.9819 27.89 5.99994 27.8915L6.00006 28.8915C19.4698 28.8899 30.447 18.6728 30.4471 6L29.4471 6ZM5.5 28.3915V700.664H6.5V28.3915H5.5ZM5.5 700.664C5.5 711.986 14.6782 721.164 26 721.164V720.164C15.2305 720.164 6.5 711.434 6.5 700.664H5.5ZM26 721.164H466V720.164H26V721.164ZM466 721.164C477.322 721.164 486.5 711.986 486.5 700.664H485.5C485.5 711.434 476.77 720.164 466 720.164V721.164ZM486.5 700.664V28.3939H485.5V700.664H486.5ZM486 27.8939C486 27.8939 486 27.8939 486 27.8939C486 27.8939 486 27.8939 486 27.8939C486 27.8939 486 27.8939 486 27.8939C486 27.8939 486 27.8939 486 27.8939C486 27.8939 486 27.8939 486 27.8939C486 27.8939 486 27.8939 486 27.8939C486 27.8939 486 27.8939 486 27.8939C486 27.8939 486 27.8939 486 27.8939C486 27.8939 486 27.8939 486 27.8939C486 27.8939 486 27.8939 486 27.8939C486 27.8939 486 27.8939 486 27.8939C486 27.8939 486 27.8939 486 27.8939C486 27.8939 486 27.8939 486 27.8939C486 27.8939 486 27.8939 486 27.8939C486 27.8939 486 27.8939 486 27.8939C486 27.8939 486 27.8939 486 27.8939C486 27.8939 486 27.8939 486 27.8939C486 27.8939 486 27.8939 486 27.8939C486 27.8939 486 27.8939 486 27.8939C486 27.8939 486 27.8939 486 27.8939C486 27.8939 486 27.8939 486 27.8939C486 27.8939 486 27.8939 486 27.8939C486 27.8939 486 27.8939 486 27.8939C486 27.8939 486 27.8939 486 27.8939C486 27.8939 486 27.8939 486 27.8939C486 27.8939 486 27.8939 486 27.8939C486 27.8939 486 27.8939 486 27.8939C486 27.8939 486 27.8939 486 27.8939C486 27.8939 486 27.8939 486 27.8939C486 27.8939 486 27.8939 486 27.8939C486 27.8939 486 27.8939 486 27.8939C486 27.8939 486 27.8939 486 27.8939C486 27.8939 486 27.8939 486 27.8939C486 27.8939 486 27.8939 486 27.8939C486 27.8939 486 27.8939 486 27.8939C486 27.8939 486 27.8939 486 27.8939C486 27.8939 486 27.8939 486 27.8939C486 27.8939 486 27.8939 486 27.8939C486 27.8939 486 27.8939 486 27.8939C486 27.8939 486 27.8939 486 27.8939C486 27.8939 486 27.8939 486 27.8939C486 27.8939 486 27.8939 486 27.8939C486 27.8939 486 27.8939 486 27.8939C486 27.8939 486 27.8939 486 27.8939C486 27.8939 486 27.8939 486 27.8939C486 27.8939 486 27.8939 486 27.8939C486 27.8939 486 27.8939 486 27.8939C486 27.8939 486 27.8939 486 27.8939C486 27.8939 486 27.8939 486 27.8939C486 27.8939 486 27.8939 486 27.8939C486 27.8939 486 27.8939 486 27.8939C486 27.8939 486 27.8939 486 27.8939C486 27.8939 486 27.8939 486 27.8939C486 27.8939 486 27.8939 486 27.8939C486 27.8939 486 27.8939 486 27.8939C486 27.8939 486 27.8939 486 27.8939C486 27.8939 486 27.8939 486 27.8939C486 27.8939 486 27.8939 486 27.8939C486 27.8939 486 27.8939 486 27.8939C486 27.8939 486 27.8939 486 27.8939C486 27.8939 486 27.8939 486 27.8939C486 27.8939 486 27.8939 486 27.8939C486 27.8939 486 27.8939 486 27.8939C486 27.8939 486 27.8939 486 27.8939C486 27.8939 486 27.8939 486 27.8939C486 27.8939 486 27.8939 486 27.8939C486 27.8939 486 27.8939 486 27.8939C486 27.8939 486 27.8939 486 27.8939C486 27.8939 486 27.8939 486 27.8939C486 27.8939 486 27.8939 486 27.8939C486 27.8939 486 27.8939 486 27.8939C486 27.8939 486 27.8939 486 27.8939C486 27.8939 486 27.8939 486 27.8939C486 27.8939 486 27.8939 486 27.8939C486 27.8939 486 27.8939 486 27.8939C486 27.8939 486 27.8939 486 27.8939C486 27.8939 486 27.8939 486 27.8939C486 27.8939 486 27.8939 486 27.8939C486 27.8939 486 27.8939 486 27.8939C486 27.8939 486 27.8939 486 27.8939C486 27.8939 486 27.8939 486 27.8939C486 27.8939 486 27.8939 486 27.8939C486 27.8939 486 27.8939 486 27.8939C486 27.8939 486 27.8939 486 27.8939C486 27.8939 486 27.8939 485.999 27.8939C485.999 27.8939 485.999 27.8939 485.999 27.8939C485.999 27.8939 485.999 27.8939 485.999 27.8939C485.999 27.8939 485.999 27.8939 485.999 27.8939C485.999 27.8939 485.999 27.8939 485.999 27.8939C485.999 27.8939 485.999 27.8939 485.999 27.8939C485.999 27.8939 485.999 27.8939 485.999 27.8939C485.999 27.8939 485.999 27.8939 485.999 27.8939C485.999 27.8939 485.999 27.8939 485.999 27.8939C485.999 27.8939 485.999 27.8939 485.999 27.8939C485.999 27.8939 485.999 27.8939 485.999 27.8939C485.999 27.8939 485.999 27.8939 485.999 27.8939C485.999 27.8939 485.999 27.8939 485.999 27.8939C485.999 27.8939 485.999 27.8939 485.999 27.8939C485.999 27.8939 485.999 27.8939 485.999 27.8939C485.999 27.8939 485.999 27.8939 485.999 27.8939C485.999 27.8939 485.999 27.8939 485.999 27.8939C485.999 27.8939 485.999 27.8939 485.999 27.8939C485.999 27.8939 485.999 27.8939 485.999 27.8939C485.999 27.8939 485.999 27.8939 485.999 27.8939C485.999 27.8939 485.999 27.8939 485.999 27.8939C485.999 27.8939 485.999 27.8939 485.999 27.8939C485.999 27.8939 485.999 27.8939 485.999 27.8939C485.999 27.8939 485.999 27.8939 485.999 27.8939C485.999 27.8939 485.999 27.8939 485.999 27.8939C485.999 27.8939 485.999 27.8939 485.999 27.8939C485.999 27.8939 485.999 27.8939 485.999 27.8939C485.999 27.8939 485.999 27.8939 485.999 27.8939C485.999 27.8939 485.999 27.8939 485.999 27.8939C485.999 27.8939 485.999 27.8939 485.999 27.8939C485.999 27.8939 485.999 27.8939 485.999 27.8939C485.999 27.8939 485.999 27.8939 485.999 27.8939C485.999 27.8939 485.999 27.8939 485.999 27.8939C485.999 27.8939 485.999 27.8939 485.999 27.8939C485.999 27.8939 485.999 27.8939 485.999 27.8939C485.999 27.8939 485.999 27.8939 485.999 27.8939C485.999 27.8939 485.999 27.8939 485.999 27.8939C485.999 27.8939 485.999 27.8939 485.999 27.8939C485.999 27.8939 485.999 27.8939 485.999 27.8939C485.999 27.8939 485.999 27.8939 485.999 27.8939C485.999 27.8939 485.999 27.8939 485.999 27.8939C485.999 27.8939 485.999 27.8939 485.999 27.8939C485.999 27.8939 485.999 27.8939 485.999 27.8939C485.999 27.8939 485.999 27.8939 485.999 27.8939C485.999 27.8939 485.999 27.8939 485.999 27.8939C485.999 27.8939 485.999 27.8939 485.999 27.8939C485.999 27.8939 485.999 27.8939 485.999 27.8939C485.999 27.8939 485.999 27.8939 485.999 27.8939C485.999 27.8939 485.999 27.8939 485.999 27.8939C485.999 27.8939 485.999 27.8939 485.999 27.8939C485.999 27.8939 485.999 27.8939 485.999 27.8939C485.999 27.8939 485.999 27.8939 485.999 27.8939C485.999 27.8939 485.999 27.8939 485.999 27.8939C485.999 27.8939 485.999 27.8939 485.999 27.8939C485.999 27.8939 485.999 27.8939 485.999 27.8939C485.999 27.8939 485.999 27.8939 485.999 27.8939C485.999 27.8939 485.999 27.8939 485.999 27.8939C485.999 27.8939 485.999 27.8939 485.999 27.8939C485.999 27.8939 485.999 27.8939 485.999 27.8939C485.999 27.8939 485.999 27.8939 485.999 27.8939C485.999 27.8939 485.999 27.8939 485.999 27.8939C485.999 27.8939 485.999 27.8939 485.999 27.8939C485.999 27.8939 485.999 27.8939 485.999 27.8939C485.999 27.8939 485.999 27.8939 485.999 27.8939C485.999 27.8939 485.999 27.8939 485.999 27.8939C485.999 27.8939 485.999 27.8939 485.999 27.8939C485.999 27.8939 485.999 27.8939 485.999 27.8939C485.999 27.8939 485.999 27.8939 485.999 27.8939C485.999 27.8939 485.999 27.8939 485.999 27.8939C485.999 27.8939 485.999 27.8939 485.999 27.8939C485.999 27.8939 485.999 27.8939 485.999 27.8939C485.999 27.8939 485.999 27.8939 485.999 27.8939C485.999 27.8939 485.999 27.8939 485.999 27.8939C485.999 27.8939 485.999 27.8939 485.999 27.8939C485.999 27.8939 485.999 27.8939 485.999 27.8939C485.999 27.8939 485.999 27.8939 485.999 27.8939C485.999 27.8939 485.999 27.8939 485.999 27.8939C485.999 27.8939 485.999 27.8939 485.999 27.8939C485.999 27.8939 485.999 27.8939 485.999 27.8939C485.999 27.8939 485.999 27.8939 485.999 27.8939C485.999 27.8939 485.999 27.8939 485.999 27.8939C485.999 27.8939 485.999 27.8939 485.999 27.8939C485.999 27.8939 485.999 27.8939 485.999 27.8939C485.999 27.8939 485.999 27.8939 485.999 27.8939C485.999 27.8939 485.999 27.8939 485.999 27.8939C485.999 27.8939 485.999 27.8939 485.999 27.8939C485.999 27.8939 485.999 27.8939 485.999 27.8939C485.999 27.8939 485.999 27.8939 485.999 27.8939C485.999 27.8939 485.999 27.8939 485.999 27.8939C485.999 27.8939 485.999 27.8939 485.999 27.8939C485.999 27.8939 485.999 27.8939 485.999 27.8939C485.999 27.8939 485.999 27.8939 485.999 27.8939C485.999 27.8939 485.999 27.8939 485.999 27.8939C485.999 27.8939 485.999 27.8939 485.999 27.8939C485.999 27.8939 485.999 27.8939 485.999 27.8939C485.999 27.8939 485.999 27.8939 485.999 27.8939C485.999 27.8939 485.999 27.8939 485.999 27.8939C485.999 27.8939 485.999 27.8939 485.999 27.8939C485.999 27.8939 485.999 27.8939 485.999 27.8939C485.999 27.8939 485.999 27.8939 485.999 27.8939C485.999 27.8939 485.999 27.8939 485.999 27.8939C485.999 27.8939 485.999 27.8939 485.999 27.8939C485.999 27.8939 485.999 27.8939 485.999 27.8939C485.999 27.8939 485.999 27.8939 485.999 27.8939C485.999 27.8939 485.999 27.8939 485.999 27.8939C485.999 27.8939 485.999 27.8939 485.999 27.8939C485.999 27.8939 485.999 27.8939 485.999 27.8939C485.999 27.8939 485.999 27.8939 485.999 27.8939C485.999 27.8939 485.999 27.8939 485.999 27.8939C485.999 27.8939 485.999 27.8939 485.999 27.8939C485.999 27.8939 485.999 27.8939 485.999 27.8939C485.999 27.8939 485.999 27.8939 485.999 27.8939C485.999 27.8939 485.999 27.8939 485.999 27.8939C485.999 27.8939 485.999 27.8939 485.999 27.8939C485.999 27.8939 485.999 27.8939 485.999 27.8939C485.999 27.8939 485.999 27.8939 485.999 27.8939C485.999 27.8939 485.999 27.8939 485.999 27.8939C485.999 27.8939 485.999 27.8939 485.999 27.8939C485.999 27.8939 485.999 27.8939 485.999 27.8939C485.999 27.8939 485.999 27.8939 485.999 27.8939C485.999 27.8939 485.999 27.8939 485.999 27.8939C485.999 27.8939 485.999 27.8939 485.999 27.8939C485.999 27.8939 485.999 27.8939 485.999 27.8939C485.999 27.8939 485.999 27.8939 485.999 27.8939C485.999 27.8939 485.999 27.8939 485.999 27.8939C485.999 27.8939 485.999 27.8939 485.999 27.8939C485.999 27.8939 485.999 27.8939 485.999 27.8939C485.999 27.8939 485.999 27.8939 485.999 27.8939C485.999 27.8939 485.999 27.8939 485.999 27.8939C485.999 27.8939 485.999 27.8939 485.999 27.8939C485.999 27.8939 485.999 27.8939 485.999 27.8939C485.999 27.8939 485.999 27.8939 485.999 27.8939C485.999 27.8939 485.999 27.8939 485.999 27.8939C485.999 27.8939 485.999 27.8939 485.999 27.8939C485.999 27.8939 485.999 27.8939 485.999 27.8939C485.999 27.8939 485.999 27.8939 485.999 27.8939C485.999 27.8939 485.999 27.8939 485.999 27.8939C485.999 27.8939 485.999 27.8939 485.999 27.8939C485.999 27.8939 485.999 27.8939 485.999 27.8939C485.999 27.8939 485.999 27.8939 485.999 27.8939C485.999 27.8939 485.999 27.8939 485.999 27.8939C485.999 27.8939 485.999 27.8939 485.999 27.8939C485.999 27.8939 485.999 27.8939 485.999 27.8939C485.999 27.8939 485.999 27.8939 485.999 27.8939C485.999 27.8939 485.999 27.8939 485.999 27.8939C485.999 27.8939 485.999 27.8939 485.999 27.8939C485.999 27.8939 485.999 27.8939 485.999 27.8939C485.999 27.8939 485.999 27.8939 485.999 27.8939C485.999 27.8939 485.999 27.8939 485.999 27.8939C485.999 27.8939 485.999 27.8939 485.999 27.8939C485.999 27.8939 485.999 27.8939 485.999 27.8939C485.999 27.8939 485.999 27.8939 485.999 27.8939C485.999 27.8939 485.999 27.8939 485.999 27.8939C485.999 27.8939 485.999 27.8939 485.999 27.8939C485.999 27.8939 485.999 27.8939 485.999 27.8939C485.999 27.8939 485.999 27.8939 485.999 27.8939C485.999 27.8939 485.999 27.8939 485.999 27.8939C485.999 27.8939 485.999 27.8939 485.999 27.8939C485.999 27.8939 485.999 27.8939 485.999 27.8939C485.999 27.8939 485.999 27.8939 485.999 27.8939C485.999 27.8939 485.999 27.8939 485.999 27.8939C485.999 27.8939 485.999 27.8939 485.999 27.8939C485.999 27.8939 485.999 27.8939 485.999 27.8939C485.999 27.8939 485.999 27.8939 485.999 27.8939C485.999 27.8939 485.999 27.8939 485.999 27.8939C485.999 27.8939 485.999 27.8939 485.999 27.8939C485.999 27.8939 485.999 27.8939 485.999 27.8939C485.999 27.8939 485.999 27.8939 485.999 27.8939C485.999 27.8939 485.999 27.8939 485.999 27.8939C485.999 27.8939 485.999 27.8939 485.999 27.8939C485.998 27.8939 485.998 27.8939 485.998 27.8939C485.998 27.8939 485.998 27.8939 485.998 27.8939C485.998 27.8939 485.998 27.8939 485.998 27.8939C485.998 27.8939 485.998 27.8939 485.998 27.8939C485.998 27.8939 485.998 27.8939 485.998 27.8939C485.998 27.8939 485.998 27.8939 485.998 27.8939C485.998 27.8939 485.998 27.8939 485.998 27.8939C485.998 27.8939 485.998 27.8939 485.998 27.8939C485.998 27.8939 485.998 27.8939 485.998 27.8939C485.998 27.8939 485.998 27.8939 485.998 27.8939C485.998 27.8939 485.998 27.8939 485.998 27.8939C485.998 27.8939 485.998 27.8939 485.998 27.8939C485.998 27.8939 485.998 27.8939 485.998 27.8939C485.998 27.8939 485.998 27.8939 485.998 27.8939C485.998 27.8939 485.998 27.8939 485.998 27.8939C485.998 27.8939 485.998 27.8939 485.998 27.8939C485.998 27.8939 485.998 27.8939 485.998 27.8939C485.998 27.8939 485.998 27.8939 485.998 27.8939C485.998 27.8939 485.998 27.8939 485.998 27.8939C485.998 27.8939 485.998 27.8939 485.998 27.8939C485.998 27.8939 485.998 27.8939 485.998 27.8939C485.998 27.8939 485.998 27.8939 485.998 27.8939C485.998 27.8939 485.998 27.8939 485.998 27.8939C485.998 27.8939 485.998 27.8939 485.998 27.8939C485.998 27.8939 485.998 27.8939 485.998 27.8939C485.998 27.8939 485.998 27.8939 485.998 27.8939C485.998 27.8939 485.998 27.8939 485.998 27.8939C485.998 27.8939 485.998 27.8939 485.998 27.8939C485.998 27.8939 485.998 27.8939 485.998 27.8939C485.998 27.8939 485.998 27.8939 485.998 27.8939C485.998 27.8939 485.998 27.8939 485.998 27.8939C485.998 27.8939 485.998 27.8939 485.998 27.8939C485.998 27.8939 485.998 27.8939 485.998 27.8939C485.998 27.8939 485.998 27.8939 485.998 27.8939C485.998 27.8939 485.998 27.8939 485.998 27.8939C485.998 27.8939 485.998 27.8939 485.998 27.8939C485.998 27.8939 485.998 27.8939 485.998 27.8939C485.998 27.8939 485.998 27.8939 485.998 27.8939C485.998 27.8939 485.998 27.8939 485.998 27.8939C485.998 27.8939 485.998 27.8939 485.998 27.8939C485.998 27.8939 485.998 27.8939 485.998 27.8939C485.998 27.8939 485.998 27.8939 485.998 27.8939C485.998 27.8939 485.998 27.8939 485.998 27.8939C485.998 27.8939 485.998 27.8939 485.998 27.8939C485.998 27.8939 485.998 27.8939 485.998 27.8939C485.998 27.8939 485.998 27.8939 485.998 27.8939C485.998 27.8939 485.998 27.8939 485.998 27.8939C485.998 27.8939 485.998 27.8939 485.998 27.8939C485.998 27.8939 485.998 27.8939 485.998 27.8939C485.998 27.8939 485.998 27.8939 485.998 27.8939C485.998 27.8939 485.998 27.8939 485.998 27.8939C485.998 27.8939 485.998 27.8939 485.998 27.8939C485.998 27.8939 485.998 27.8939 485.998 27.8939C485.998 27.8939 485.998 27.8939 485.998 27.8939C485.998 27.8939 485.998 27.8939 485.998 27.8939C485.998 27.8939 485.998 27.8939 485.998 27.8939C485.998 27.8939 485.998 27.8939 485.998 27.8939C485.998 27.8939 485.998 27.8939 485.998 27.8939C485.998 27.8939 485.998 27.8939 485.998 27.8939C485.998 27.8939 485.998 27.8939 485.998 27.8939C485.998 27.8939 485.998 27.8939 485.998 27.8939C485.998 27.8939 485.998 27.8939 485.998 27.8939C485.998 27.8939 485.998 27.8939 485.998 27.8939C485.998 27.8939 485.998 27.8939 485.998 27.8939C485.998 27.8939 485.998 27.8939 485.998 27.8939C485.998 27.8939 485.998 27.8939 485.998 27.8939C485.998 27.8939 485.998 27.8939 485.998 27.8939C485.998 27.8939 485.998 27.8939 485.998 27.8939C485.998 27.8939 485.998 27.8939 485.998 27.8939C485.998 27.8939 485.998 27.8939 485.998 27.8939C485.998 27.8939 485.998 27.8939 485.998 27.8939C485.998 27.8939 485.998 27.8939 485.998 27.8939C485.998 27.8939 485.998 27.8939 485.998 27.8939C485.998 27.8939 485.998 27.8939 485.998 27.8939C485.998 27.8939 485.998 27.8939 485.998 27.8939C485.998 27.8939 485.998 27.8939 485.998 27.8939C485.998 27.8939 485.998 27.8939 485.998 27.8939C485.998 27.8939 485.998 27.8939 485.998 27.8939C485.998 27.8939 485.998 27.8939 485.998 27.8939C485.998 27.8939 485.998 27.8939 485.998 27.8939C485.998 27.8939 485.998 27.8939 485.998 27.8939C485.998 27.8939 485.998 27.8939 485.998 27.8939C485.998 27.8939 485.998 27.8939 485.998 27.8939C485.998 27.8939 485.998 27.8939 485.998 27.8939C485.998 27.8939 485.998 27.8939 485.998 27.8939C485.998 27.8939 485.998 27.8939 485.998 27.8939C485.998 27.8939 485.998 27.8939 485.998 27.8939C485.998 27.8939 485.998 27.8939 485.998 27.8939C485.998 27.8939 485.998 27.8939 485.998 27.8939C485.998 27.8939 485.998 27.8939 485.998 27.8939C485.998 27.8939 485.998 27.8939 485.998 27.8939C485.998 27.8939 485.998 27.8939 485.998 27.8939C485.998 27.8939 485.998 27.8939 485.998 27.8939C485.998 27.8939 485.998 27.8939 485.998 27.8939C485.998 27.8939 485.998 27.8939 485.998 27.8939C485.998 27.8939 485.998 27.8939 485.998 27.8939C485.998 27.8939 485.998 27.8939 485.998 27.8939C485.998 27.8939 485.998 27.8939 485.998 27.8939C485.998 27.8939 485.998 27.8939 485.998 27.8939C485.998 27.8939 485.998 27.8939 485.998 27.8939C485.998 27.8939 485.998 27.8939 485.998 27.8939C485.998 27.8939 485.998 27.8939 485.998 27.8939C485.998 27.8939 485.998 27.8939 485.998 27.8939C485.998 27.8939 485.998 27.8939 485.998 27.8939C485.998 27.8939 485.998 27.8939 485.998 27.8939C485.998 27.8939 485.998 27.8939 485.998 27.8939C485.998 27.8939 485.998 27.8939 485.998 27.8939C485.998 27.8939 485.998 27.8939 485.998 27.8939C485.998 27.8939 485.998 27.8939 485.998 27.8939C485.998 27.8939 485.998 27.8939 485.998 27.8939C485.998 27.8939 485.998 27.8939 485.998 27.8939C485.998 27.8939 485.998 27.8939 485.998 27.8939C485.998 27.8939 485.998 27.8939 485.998 27.8939C485.998 27.8939 485.998 27.8939 485.998 27.8939C485.998 27.8939 485.998 27.8939 485.998 27.8939C485.998 27.8939 485.998 27.8939 485.998 27.8939C485.998 27.8939 485.998 27.8939 485.998 27.8939C485.998 27.8939 485.998 27.8939 485.998 27.8939C485.998 27.8939 485.998 27.8939 485.998 27.8939C485.998 27.8939 485.998 27.8939 485.998 27.8939C485.998 27.8939 485.998 27.8939 485.998 27.8939C485.998 27.8939 485.998 27.8939 485.998 27.8939C485.998 27.8939 485.998 27.8939 485.998 27.8939C485.998 27.8939 485.998 27.8939 485.998 27.8939C485.998 27.8939 485.998 27.8939 485.998 27.8939C485.998 27.8939 485.998 27.8939 485.998 27.8939C485.998 27.8939 485.998 27.8939 485.998 27.8939C485.998 27.8939 485.998 27.8939 485.998 27.8939C485.998 27.8939 485.998 27.8939 485.998 27.8939C485.998 27.8939 485.998 27.8939 485.998 27.8939C485.998 27.8939 485.998 27.8939 485.998 27.8939C485.998 27.8939 485.998 27.8939 485.998 27.8939C485.998 27.8939 485.998 27.8939 485.998 27.8939C485.998 27.8939 485.998 27.8939 485.998 27.8939C485.998 27.8939 485.998 27.8939 485.998 27.8939C485.998 27.8939 485.998 27.8939 485.998 27.8939C485.998 27.8939 485.998 27.8939 485.998 27.8939C485.998 27.8939 485.998 27.8939 485.998 27.8939C485.998 27.8939 485.998 27.8939 485.998 27.8939C485.998 27.8939 485.998 27.8939 485.998 27.8939C485.998 27.8939 485.998 27.8939 485.998 27.8939C485.998 27.8939 485.998 27.8939 485.998 27.8939C485.998 27.8939 485.998 27.8939 485.998 27.8939C485.998 27.8939 485.998 27.8939 485.998 27.8939C485.998 27.8939 485.998 27.8939 485.998 27.8939C485.998 27.8939 485.998 27.8939 485.998 27.8939C485.998 27.8939 485.998 27.8939 485.998 27.8939C485.998 27.8939 485.998 27.8939 485.998 27.8939C485.998 27.8939 485.998 27.8939 485.998 27.8939C485.998 27.8939 485.998 27.8939 485.998 27.8939C485.998 27.8939 485.998 27.8939 485.998 27.8939C485.998 27.8939 485.998 27.8939 485.998 27.8939C485.998 27.8939 485.998 27.8939 485.998 27.8939C485.998 27.8939 485.998 27.8939 485.998 27.8939C485.998 27.8939 485.998 27.8939 485.998 27.8939C485.998 27.8939 485.998 27.8939 485.998 27.8939C485.998 27.8939 485.998 27.8939 485.998 27.8939C485.998 27.8939 485.998 27.8939 485.998 27.8939C485.998 27.8939 485.998 27.8939 485.998 27.8939C485.998 27.8939 485.998 27.8939 485.998 27.8939C485.998 27.8939 485.998 27.8939 485.998 27.8939C485.998 27.8939 485.998 27.8939 485.998 27.8939C485.998 27.8939 485.998 27.8939 485.998 27.8939C485.998 27.8939 485.998 27.8939 485.998 27.8939C485.998 27.8939 485.998 27.8939 485.998 27.8939C485.998 27.8939 485.998 27.8939 485.998 27.8939C485.998 27.8939 485.998 27.8939 485.998 27.8939C485.998 27.8939 485.998 27.8939 485.998 27.8939C485.998 27.8939 485.998 27.8939 485.998 27.8939C485.998 27.8939 485.998 27.8939 485.997 27.8939C485.997 27.8939 485.997 27.8939 485.997 27.8939C485.997 27.8939 485.997 27.8939 485.997 27.8939C485.997 27.8939 485.997 27.8939 485.997 27.8939C485.997 27.8939 485.997 27.8939 485.997 27.8939C485.997 27.8939 485.997 27.8939 485.997 27.8939C485.997 27.8939 485.997 27.8939 485.997 27.8939C485.997 27.8939 485.997 27.8939 485.997 27.8939C485.997 27.8939 485.997 27.8939 485.997 27.8939C485.997 27.8939 485.997 27.8939 485.997 27.8939C485.997 27.8939 485.997 27.8939 485.997 27.8939C485.997 27.8939 485.997 27.8939 485.997 27.8939C485.997 27.8939 485.997 27.8939 485.997 27.8939C485.997 27.8939 485.997 27.8939 485.997 27.8939C485.997 27.8939 485.997 27.8939 485.997 27.8939C485.997 27.8939 485.997 27.8939 485.997 27.8939C485.997 27.8939 485.997 27.8939 485.997 27.8939C485.997 27.8939 485.997 27.8939 485.997 27.8939C485.997 27.8939 485.997 27.8939 485.997 27.8939C485.997 27.8939 485.997 27.8939 485.997 27.8939C485.997 27.8939 485.997 27.8939 485.997 27.8939C485.997 27.8939 485.997 27.8939 485.997 27.8939C485.997 27.8939 485.997 27.8939 485.997 27.8939C485.997 27.8939 485.997 27.8939 485.997 27.8939C485.997 27.8939 485.997 27.8939 485.997 27.8939C485.997 27.8939 485.997 27.8939 485.997 27.8939C485.997 27.8939 485.997 27.8939 485.997 27.8939C485.997 27.8939 485.997 27.8939 485.997 27.8939C485.997 27.8939 485.997 27.8939 485.997 27.8939C485.997 27.8939 485.997 27.8939 485.997 27.8939C485.997 27.8939 485.997 27.8939 485.997 27.8939C485.997 27.8939 485.997 27.8939 485.997 27.8939C485.997 27.8939 485.997 27.8939 485.997 27.8939C485.997 27.8939 485.997 27.8939 485.997 27.8939C485.997 27.8939 485.997 27.8939 485.997 27.8939C485.997 27.8939 485.997 27.8939 485.997 27.8939C485.997 27.8939 485.997 27.8939 485.997 27.8939C485.997 27.8939 485.997 27.8939 485.997 27.8939C485.997 27.8939 485.997 27.8939 485.997 27.8939C485.997 27.8939 485.997 27.8939 485.997 27.8939C485.997 27.8939 485.997 27.8939 485.997 27.8939C485.997 27.8939 485.997 27.8939 485.997 27.8939C485.997 27.8939 485.997 27.8939 485.997 27.8939C485.997 27.8939 485.997 27.8939 485.997 27.8939C485.997 27.8939 485.997 27.8939 485.997 27.8939C485.997 27.8939 485.997 27.8939 485.997 27.8939C485.997 27.8939 485.997 27.8939 485.997 27.8939C485.997 27.8939 485.997 27.8939 485.997 27.8939C485.997 27.8939 485.997 27.8939 485.997 27.8939C485.997 27.8939 485.997 27.8939 485.997 27.8939C485.997 27.8939 485.997 27.8939 485.997 27.8939C485.997 27.8939 485.997 27.8939 485.997 27.8939C485.997 27.8939 485.997 27.8939 485.997 27.8939C485.997 27.8939 485.997 27.8939 485.997 27.8939C485.997 27.8939 485.997 27.8939 485.997 27.8939C485.997 27.8939 485.997 27.8939 485.997 27.8939C485.997 27.8939 485.997 27.8939 485.997 27.8939C485.997 27.8939 485.997 27.8939 485.997 27.8939C485.997 27.8939 485.997 27.8939 485.997 27.8939C485.997 27.8939 485.997 27.8939 485.997 27.8939C485.997 27.8939 485.997 27.8939 485.997 27.8939C485.997 27.8939 485.997 27.8939 485.997 27.8939C485.997 27.8939 485.997 27.8939 485.997 27.8939C485.997 27.8939 485.997 27.8939 485.997 27.8939C485.997 27.8939 485.997 27.8939 485.997 27.8939C485.997 27.8939 485.997 27.8939 485.997 27.8939C485.997 27.8939 485.997 27.8939 485.997 27.8939C485.997 27.8939 485.997 27.8939 485.997 27.8939C485.997 27.8939 485.997 27.8939 485.997 27.8939C485.997 27.8939 485.997 27.8939 485.997 27.8939C485.997 27.8939 485.997 27.8939 485.997 27.8939C485.997 27.8939 485.997 27.8939 485.997 27.8939C485.997 27.8939 485.997 27.8939 485.997 27.8939C485.997 27.8939 485.997 27.8939 485.997 27.8939C485.997 27.8939 485.997 27.8939 485.997 27.8939C485.997 27.8939 485.997 27.8939 485.997 27.8939C485.997 27.8939 485.997 27.8939 485.997 27.8939C485.997 27.8939 485.997 27.8939 485.997 27.8939C485.997 27.8939 485.997 27.8939 485.997 27.8939C485.997 27.8939 485.997 27.8939 485.997 27.8939C485.997 27.8939 485.997 27.8939 485.997 27.8939C485.997 27.8939 485.997 27.8939 485.997 27.8939C485.997 27.8939 485.997 27.8939 485.997 27.8939C485.997 27.8939 485.997 27.8939 485.997 27.8939C485.997 27.8939 485.997 27.8939 485.997 27.8939C485.997 27.8939 485.997 27.8939 485.997 27.8939C485.997 27.8939 485.997 27.8939 485.997 27.8939C485.997 27.8939 485.997 27.8939 485.997 27.8939C485.997 27.8939 485.997 27.8939 485.997 27.8939V28.8939C485.997 28.8939 485.997 28.8939 485.997 28.8939C485.997 28.8939 485.997 28.8939 485.997 28.8939C485.997 28.8939 485.997 28.8939 485.997 28.8939C485.997 28.8939 485.997 28.8939 485.997 28.8939C485.997 28.8939 485.997 28.8939 485.997 28.8939C485.997 28.8939 485.997 28.8939 485.997 28.8939C485.997 28.8939 485.997 28.8939 485.997 28.8939C485.997 28.8939 485.997 28.8939 485.997 28.8939C485.997 28.8939 485.997 28.8939 485.997 28.8939C485.997 28.8939 485.997 28.8939 485.997 28.8939C485.997 28.8939 485.997 28.8939 485.997 28.8939C485.997 28.8939 485.997 28.8939 485.997 28.8939C485.997 28.8939 485.997 28.8939 485.997 28.8939C485.997 28.8939 485.997 28.8939 485.997 28.8939C485.997 28.8939 485.997 28.8939 485.997 28.8939C485.997 28.8939 485.997 28.8939 485.997 28.8939C485.997 28.8939 485.997 28.8939 485.997 28.8939C485.997 28.8939 485.997 28.8939 485.997 28.8939C485.997 28.8939 485.997 28.8939 485.997 28.8939C485.997 28.8939 485.997 28.8939 485.997 28.8939C485.997 28.8939 485.997 28.8939 485.997 28.8939C485.997 28.8939 485.997 28.8939 485.997 28.8939C485.997 28.8939 485.997 28.8939 485.997 28.8939C485.997 28.8939 485.997 28.8939 485.997 28.8939C485.997 28.8939 485.997 28.8939 485.997 28.8939C485.997 28.8939 485.997 28.8939 485.997 28.8939C485.997 28.8939 485.997 28.8939 485.997 28.8939C485.997 28.8939 485.997 28.8939 485.997 28.8939C485.997 28.8939 485.997 28.8939 485.997 28.8939C485.997 28.8939 485.997 28.8939 485.997 28.8939C485.997 28.8939 485.997 28.8939 485.997 28.8939C485.997 28.8939 485.997 28.8939 485.997 28.8939C485.997 28.8939 485.997 28.8939 485.997 28.8939C485.997 28.8939 485.997 28.8939 485.997 28.8939C485.997 28.8939 485.997 28.8939 485.997 28.8939C485.997 28.8939 485.997 28.8939 485.997 28.8939C485.997 28.8939 485.997 28.8939 485.997 28.8939C485.997 28.8939 485.997 28.8939 485.997 28.8939C485.997 28.8939 485.997 28.8939 485.997 28.8939C485.997 28.8939 485.997 28.8939 485.997 28.8939C485.997 28.8939 485.997 28.8939 485.997 28.8939C485.997 28.8939 485.997 28.8939 485.997 28.8939C485.997 28.8939 485.997 28.8939 485.997 28.8939C485.997 28.8939 485.997 28.8939 485.997 28.8939C485.997 28.8939 485.997 28.8939 485.997 28.8939C485.997 28.8939 485.997 28.8939 485.997 28.8939C485.997 28.8939 485.997 28.8939 485.997 28.8939C485.997 28.8939 485.997 28.8939 485.997 28.8939C485.997 28.8939 485.997 28.8939 485.997 28.8939C485.997 28.8939 485.997 28.8939 485.997 28.8939C485.997 28.8939 485.997 28.8939 485.997 28.8939C485.997 28.8939 485.997 28.8939 485.997 28.8939C485.997 28.8939 485.997 28.8939 485.997 28.8939C485.997 28.8939 485.997 28.8939 485.997 28.8939C485.997 28.8939 485.997 28.8939 485.997 28.8939C485.997 28.8939 485.997 28.8939 485.997 28.8939C485.997 28.8939 485.997 28.8939 485.997 28.8939C485.997 28.8939 485.997 28.8939 485.997 28.8939C485.997 28.8939 485.997 28.8939 485.997 28.8939C485.997 28.8939 485.997 28.8939 485.997 28.8939C485.997 28.8939 485.997 28.8939 485.997 28.8939C485.997 28.8939 485.997 28.8939 485.997 28.8939C485.997 28.8939 485.997 28.8939 485.997 28.8939C485.997 28.8939 485.997 28.8939 485.997 28.8939C485.997 28.8939 485.997 28.8939 485.997 28.8939C485.997 28.8939 485.997 28.8939 485.997 28.8939C485.997 28.8939 485.997 28.8939 485.997 28.8939C485.997 28.8939 485.997 28.8939 485.997 28.8939C485.997 28.8939 485.997 28.8939 485.997 28.8939C485.997 28.8939 485.997 28.8939 485.997 28.8939C485.997 28.8939 485.997 28.8939 485.997 28.8939C485.997 28.8939 485.997 28.8939 485.997 28.8939C485.997 28.8939 485.997 28.8939 485.997 28.8939C485.997 28.8939 485.997 28.8939 485.997 28.8939C485.997 28.8939 485.997 28.8939 485.997 28.8939C485.997 28.8939 485.997 28.8939 485.997 28.8939C485.997 28.8939 485.997 28.8939 485.997 28.8939C485.997 28.8939 485.997 28.8939 485.997 28.8939C485.997 28.8939 485.997 28.8939 485.997 28.8939C485.997 28.8939 485.997 28.8939 485.997 28.8939C485.997 28.8939 485.997 28.8939 485.997 28.8939C485.997 28.8939 485.997 28.8939 485.997 28.8939C485.997 28.8939 485.997 28.8939 485.997 28.8939C485.997 28.8939 485.997 28.8939 485.997 28.8939C485.997 28.8939 485.997 28.8939 485.997 28.8939C485.997 28.8939 485.997 28.8939 485.997 28.8939C485.997 28.8939 485.997 28.8939 485.997 28.8939C485.997 28.8939 485.997 28.8939 485.997 28.8939C485.998 28.8939 485.998 28.8939 485.998 28.8939C485.998 28.8939 485.998 28.8939 485.998 28.8939C485.998 28.8939 485.998 28.8939 485.998 28.8939C485.998 28.8939 485.998 28.8939 485.998 28.8939C485.998 28.8939 485.998 28.8939 485.998 28.8939C485.998 28.8939 485.998 28.8939 485.998 28.8939C485.998 28.8939 485.998 28.8939 485.998 28.8939C485.998 28.8939 485.998 28.8939 485.998 28.8939C485.998 28.8939 485.998 28.8939 485.998 28.8939C485.998 28.8939 485.998 28.8939 485.998 28.8939C485.998 28.8939 485.998 28.8939 485.998 28.8939C485.998 28.8939 485.998 28.8939 485.998 28.8939C485.998 28.8939 485.998 28.8939 485.998 28.8939C485.998 28.8939 485.998 28.8939 485.998 28.8939C485.998 28.8939 485.998 28.8939 485.998 28.8939C485.998 28.8939 485.998 28.8939 485.998 28.8939C485.998 28.8939 485.998 28.8939 485.998 28.8939C485.998 28.8939 485.998 28.8939 485.998 28.8939C485.998 28.8939 485.998 28.8939 485.998 28.8939C485.998 28.8939 485.998 28.8939 485.998 28.8939C485.998 28.8939 485.998 28.8939 485.998 28.8939C485.998 28.8939 485.998 28.8939 485.998 28.8939C485.998 28.8939 485.998 28.8939 485.998 28.8939C485.998 28.8939 485.998 28.8939 485.998 28.8939C485.998 28.8939 485.998 28.8939 485.998 28.8939C485.998 28.8939 485.998 28.8939 485.998 28.8939C485.998 28.8939 485.998 28.8939 485.998 28.8939C485.998 28.8939 485.998 28.8939 485.998 28.8939C485.998 28.8939 485.998 28.8939 485.998 28.8939C485.998 28.8939 485.998 28.8939 485.998 28.8939C485.998 28.8939 485.998 28.8939 485.998 28.8939C485.998 28.8939 485.998 28.8939 485.998 28.8939C485.998 28.8939 485.998 28.8939 485.998 28.8939C485.998 28.8939 485.998 28.8939 485.998 28.8939C485.998 28.8939 485.998 28.8939 485.998 28.8939C485.998 28.8939 485.998 28.8939 485.998 28.8939C485.998 28.8939 485.998 28.8939 485.998 28.8939C485.998 28.8939 485.998 28.8939 485.998 28.8939C485.998 28.8939 485.998 28.8939 485.998 28.8939C485.998 28.8939 485.998 28.8939 485.998 28.8939C485.998 28.8939 485.998 28.8939 485.998 28.8939C485.998 28.8939 485.998 28.8939 485.998 28.8939C485.998 28.8939 485.998 28.8939 485.998 28.8939C485.998 28.8939 485.998 28.8939 485.998 28.8939C485.998 28.8939 485.998 28.8939 485.998 28.8939C485.998 28.8939 485.998 28.8939 485.998 28.8939C485.998 28.8939 485.998 28.8939 485.998 28.8939C485.998 28.8939 485.998 28.8939 485.998 28.8939C485.998 28.8939 485.998 28.8939 485.998 28.8939C485.998 28.8939 485.998 28.8939 485.998 28.8939C485.998 28.8939 485.998 28.8939 485.998 28.8939C485.998 28.8939 485.998 28.8939 485.998 28.8939C485.998 28.8939 485.998 28.8939 485.998 28.8939C485.998 28.8939 485.998 28.8939 485.998 28.8939C485.998 28.8939 485.998 28.8939 485.998 28.8939C485.998 28.8939 485.998 28.8939 485.998 28.8939C485.998 28.8939 485.998 28.8939 485.998 28.8939C485.998 28.8939 485.998 28.8939 485.998 28.8939C485.998 28.8939 485.998 28.8939 485.998 28.8939C485.998 28.8939 485.998 28.8939 485.998 28.8939C485.998 28.8939 485.998 28.8939 485.998 28.8939C485.998 28.8939 485.998 28.8939 485.998 28.8939C485.998 28.8939 485.998 28.8939 485.998 28.8939C485.998 28.8939 485.998 28.8939 485.998 28.8939C485.998 28.8939 485.998 28.8939 485.998 28.8939C485.998 28.8939 485.998 28.8939 485.998 28.8939C485.998 28.8939 485.998 28.8939 485.998 28.8939C485.998 28.8939 485.998 28.8939 485.998 28.8939C485.998 28.8939 485.998 28.8939 485.998 28.8939C485.998 28.8939 485.998 28.8939 485.998 28.8939C485.998 28.8939 485.998 28.8939 485.998 28.8939C485.998 28.8939 485.998 28.8939 485.998 28.8939C485.998 28.8939 485.998 28.8939 485.998 28.8939C485.998 28.8939 485.998 28.8939 485.998 28.8939C485.998 28.8939 485.998 28.8939 485.998 28.8939C485.998 28.8939 485.998 28.8939 485.998 28.8939C485.998 28.8939 485.998 28.8939 485.998 28.8939C485.998 28.8939 485.998 28.8939 485.998 28.8939C485.998 28.8939 485.998 28.8939 485.998 28.8939C485.998 28.8939 485.998 28.8939 485.998 28.8939C485.998 28.8939 485.998 28.8939 485.998 28.8939C485.998 28.8939 485.998 28.8939 485.998 28.8939C485.998 28.8939 485.998 28.8939 485.998 28.8939C485.998 28.8939 485.998 28.8939 485.998 28.8939C485.998 28.8939 485.998 28.8939 485.998 28.8939C485.998 28.8939 485.998 28.8939 485.998 28.8939C485.998 28.8939 485.998 28.8939 485.998 28.8939C485.998 28.8939 485.998 28.8939 485.998 28.8939C485.998 28.8939 485.998 28.8939 485.998 28.8939C485.998 28.8939 485.998 28.8939 485.998 28.8939C485.998 28.8939 485.998 28.8939 485.998 28.8939C485.998 28.8939 485.998 28.8939 485.998 28.8939C485.998 28.8939 485.998 28.8939 485.998 28.8939C485.998 28.8939 485.998 28.8939 485.998 28.8939C485.998 28.8939 485.998 28.8939 485.998 28.8939C485.998 28.8939 485.998 28.8939 485.998 28.8939C485.998 28.8939 485.998 28.8939 485.998 28.8939C485.998 28.8939 485.998 28.8939 485.998 28.8939C485.998 28.8939 485.998 28.8939 485.998 28.8939C485.998 28.8939 485.998 28.8939 485.998 28.8939C485.998 28.8939 485.998 28.8939 485.998 28.8939C485.998 28.8939 485.998 28.8939 485.998 28.8939C485.998 28.8939 485.998 28.8939 485.998 28.8939C485.998 28.8939 485.998 28.8939 485.998 28.8939C485.998 28.8939 485.998 28.8939 485.998 28.8939C485.998 28.8939 485.998 28.8939 485.998 28.8939C485.998 28.8939 485.998 28.8939 485.998 28.8939C485.998 28.8939 485.998 28.8939 485.998 28.8939C485.998 28.8939 485.998 28.8939 485.998 28.8939C485.998 28.8939 485.998 28.8939 485.998 28.8939C485.998 28.8939 485.998 28.8939 485.998 28.8939C485.998 28.8939 485.998 28.8939 485.998 28.8939C485.998 28.8939 485.998 28.8939 485.998 28.8939C485.998 28.8939 485.998 28.8939 485.998 28.8939C485.998 28.8939 485.998 28.8939 485.998 28.8939C485.998 28.8939 485.998 28.8939 485.998 28.8939C485.998 28.8939 485.998 28.8939 485.998 28.8939C485.998 28.8939 485.998 28.8939 485.998 28.8939C485.998 28.8939 485.998 28.8939 485.998 28.8939C485.998 28.8939 485.998 28.8939 485.998 28.8939C485.998 28.8939 485.998 28.8939 485.998 28.8939C485.998 28.8939 485.998 28.8939 485.998 28.8939C485.998 28.8939 485.998 28.8939 485.998 28.8939C485.998 28.8939 485.998 28.8939 485.998 28.8939C485.998 28.8939 485.998 28.8939 485.998 28.8939C485.998 28.8939 485.998 28.8939 485.998 28.8939C485.998 28.8939 485.998 28.8939 485.998 28.8939C485.998 28.8939 485.998 28.8939 485.998 28.8939C485.998 28.8939 485.998 28.8939 485.998 28.8939C485.998 28.8939 485.998 28.8939 485.998 28.8939C485.998 28.8939 485.998 28.8939 485.998 28.8939C485.998 28.8939 485.998 28.8939 485.998 28.8939C485.998 28.8939 485.998 28.8939 485.998 28.8939C485.998 28.8939 485.998 28.8939 485.998 28.8939C485.998 28.8939 485.998 28.8939 485.998 28.8939C485.998 28.8939 485.998 28.8939 485.998 28.8939C485.998 28.8939 485.998 28.8939 485.998 28.8939C485.998 28.8939 485.998 28.8939 485.998 28.8939C485.998 28.8939 485.998 28.8939 485.998 28.8939C485.998 28.8939 485.998 28.8939 485.998 28.8939C485.998 28.8939 485.998 28.8939 485.998 28.8939C485.998 28.8939 485.998 28.8939 485.998 28.8939C485.998 28.8939 485.998 28.8939 485.998 28.8939C485.998 28.8939 485.998 28.8939 485.998 28.8939C485.998 28.8939 485.998 28.8939 485.998 28.8939C485.998 28.8939 485.998 28.8939 485.998 28.8939C485.998 28.8939 485.998 28.8939 485.998 28.8939C485.998 28.8939 485.998 28.8939 485.998 28.8939C485.998 28.8939 485.998 28.8939 485.998 28.8939C485.998 28.8939 485.998 28.8939 485.998 28.8939C485.998 28.8939 485.998 28.8939 485.998 28.8939C485.998 28.8939 485.998 28.8939 485.998 28.8939C485.998 28.8939 485.998 28.8939 485.998 28.8939C485.998 28.8939 485.998 28.8939 485.998 28.8939C485.998 28.8939 485.998 28.8939 485.998 28.8939C485.998 28.8939 485.998 28.8939 485.998 28.8939C485.998 28.8939 485.998 28.8939 485.998 28.8939C485.998 28.8939 485.998 28.8939 485.998 28.8939C485.998 28.8939 485.998 28.8939 485.998 28.8939C485.998 28.8939 485.998 28.8939 485.998 28.8939C485.998 28.8939 485.998 28.8939 485.998 28.8939C485.998 28.8939 485.998 28.8939 485.998 28.8939C485.998 28.8939 485.998 28.8939 485.998 28.8939C485.998 28.8939 485.998 28.8939 485.998 28.8939C485.998 28.8939 485.998 28.8939 485.998 28.8939C485.998 28.8939 485.998 28.8939 485.998 28.8939C485.998 28.8939 485.998 28.8939 485.998 28.8939C485.998 28.8939 485.998 28.8939 485.998 28.8939C485.998 28.8939 485.998 28.8939 485.998 28.8939C485.998 28.8939 485.998 28.8939 485.999 28.8939C485.999 28.8939 485.999 28.8939 485.999 28.8939C485.999 28.8939 485.999 28.8939 485.999 28.8939C485.999 28.8939 485.999 28.8939 485.999 28.8939C485.999 28.8939 485.999 28.8939 485.999 28.8939C485.999 28.8939 485.999 28.8939 485.999 28.8939C485.999 28.8939 485.999 28.8939 485.999 28.8939C485.999 28.8939 485.999 28.8939 485.999 28.8939C485.999 28.8939 485.999 28.8939 485.999 28.8939C485.999 28.8939 485.999 28.8939 485.999 28.8939C485.999 28.8939 485.999 28.8939 485.999 28.8939C485.999 28.8939 485.999 28.8939 485.999 28.8939C485.999 28.8939 485.999 28.8939 485.999 28.8939C485.999 28.8939 485.999 28.8939 485.999 28.8939C485.999 28.8939 485.999 28.8939 485.999 28.8939C485.999 28.8939 485.999 28.8939 485.999 28.8939C485.999 28.8939 485.999 28.8939 485.999 28.8939C485.999 28.8939 485.999 28.8939 485.999 28.8939C485.999 28.8939 485.999 28.8939 485.999 28.8939C485.999 28.8939 485.999 28.8939 485.999 28.8939C485.999 28.8939 485.999 28.8939 485.999 28.8939C485.999 28.8939 485.999 28.8939 485.999 28.8939C485.999 28.8939 485.999 28.8939 485.999 28.8939C485.999 28.8939 485.999 28.8939 485.999 28.8939C485.999 28.8939 485.999 28.8939 485.999 28.8939C485.999 28.8939 485.999 28.8939 485.999 28.8939C485.999 28.8939 485.999 28.8939 485.999 28.8939C485.999 28.8939 485.999 28.8939 485.999 28.8939C485.999 28.8939 485.999 28.8939 485.999 28.8939C485.999 28.8939 485.999 28.8939 485.999 28.8939C485.999 28.8939 485.999 28.8939 485.999 28.8939C485.999 28.8939 485.999 28.8939 485.999 28.8939C485.999 28.8939 485.999 28.8939 485.999 28.8939C485.999 28.8939 485.999 28.8939 485.999 28.8939C485.999 28.8939 485.999 28.8939 485.999 28.8939C485.999 28.8939 485.999 28.8939 485.999 28.8939C485.999 28.8939 485.999 28.8939 485.999 28.8939C485.999 28.8939 485.999 28.8939 485.999 28.8939C485.999 28.8939 485.999 28.8939 485.999 28.8939C485.999 28.8939 485.999 28.8939 485.999 28.8939C485.999 28.8939 485.999 28.8939 485.999 28.8939C485.999 28.8939 485.999 28.8939 485.999 28.8939C485.999 28.8939 485.999 28.8939 485.999 28.8939C485.999 28.8939 485.999 28.8939 485.999 28.8939C485.999 28.8939 485.999 28.8939 485.999 28.8939C485.999 28.8939 485.999 28.8939 485.999 28.8939C485.999 28.8939 485.999 28.8939 485.999 28.8939C485.999 28.8939 485.999 28.8939 485.999 28.8939C485.999 28.8939 485.999 28.8939 485.999 28.8939C485.999 28.8939 485.999 28.8939 485.999 28.8939C485.999 28.8939 485.999 28.8939 485.999 28.8939C485.999 28.8939 485.999 28.8939 485.999 28.8939C485.999 28.8939 485.999 28.8939 485.999 28.8939C485.999 28.8939 485.999 28.8939 485.999 28.8939C485.999 28.8939 485.999 28.8939 485.999 28.8939C485.999 28.8939 485.999 28.8939 485.999 28.8939C485.999 28.8939 485.999 28.8939 485.999 28.8939C485.999 28.8939 485.999 28.8939 485.999 28.8939C485.999 28.8939 485.999 28.8939 485.999 28.8939C485.999 28.8939 485.999 28.8939 485.999 28.8939C485.999 28.8939 485.999 28.8939 485.999 28.8939C485.999 28.8939 485.999 28.8939 485.999 28.8939C485.999 28.8939 485.999 28.8939 485.999 28.8939C485.999 28.8939 485.999 28.8939 485.999 28.8939C485.999 28.8939 485.999 28.8939 485.999 28.8939C485.999 28.8939 485.999 28.8939 485.999 28.8939C485.999 28.8939 485.999 28.8939 485.999 28.8939C485.999 28.8939 485.999 28.8939 485.999 28.8939C485.999 28.8939 485.999 28.8939 485.999 28.8939C485.999 28.8939 485.999 28.8939 485.999 28.8939C485.999 28.8939 485.999 28.8939 485.999 28.8939C485.999 28.8939 485.999 28.8939 485.999 28.8939C485.999 28.8939 485.999 28.8939 485.999 28.8939C485.999 28.8939 485.999 28.8939 485.999 28.8939C485.999 28.8939 485.999 28.8939 485.999 28.8939C485.999 28.8939 485.999 28.8939 485.999 28.8939C485.999 28.8939 485.999 28.8939 485.999 28.8939C485.999 28.8939 485.999 28.8939 485.999 28.8939C485.999 28.8939 485.999 28.8939 485.999 28.8939C485.999 28.8939 485.999 28.8939 485.999 28.8939C485.999 28.8939 485.999 28.8939 485.999 28.8939C485.999 28.8939 485.999 28.8939 485.999 28.8939C485.999 28.8939 485.999 28.8939 485.999 28.8939C485.999 28.8939 485.999 28.8939 485.999 28.8939C485.999 28.8939 485.999 28.8939 485.999 28.8939C485.999 28.8939 485.999 28.8939 485.999 28.8939C485.999 28.8939 485.999 28.8939 485.999 28.8939C485.999 28.8939 485.999 28.8939 485.999 28.8939C485.999 28.8939 485.999 28.8939 485.999 28.8939C485.999 28.8939 485.999 28.8939 485.999 28.8939C485.999 28.8939 485.999 28.8939 485.999 28.8939C485.999 28.8939 485.999 28.8939 485.999 28.8939C485.999 28.8939 485.999 28.8939 485.999 28.8939C485.999 28.8939 485.999 28.8939 485.999 28.8939C485.999 28.8939 485.999 28.8939 485.999 28.8939C485.999 28.8939 485.999 28.8939 485.999 28.8939C485.999 28.8939 485.999 28.8939 485.999 28.8939C485.999 28.8939 485.999 28.8939 485.999 28.8939C485.999 28.8939 485.999 28.8939 485.999 28.8939C485.999 28.8939 485.999 28.8939 485.999 28.8939C485.999 28.8939 485.999 28.8939 485.999 28.8939C485.999 28.8939 485.999 28.8939 485.999 28.8939C485.999 28.8939 485.999 28.8939 485.999 28.8939C485.999 28.8939 485.999 28.8939 485.999 28.8939C485.999 28.8939 485.999 28.8939 485.999 28.8939C485.999 28.8939 485.999 28.8939 485.999 28.8939C485.999 28.8939 485.999 28.8939 485.999 28.8939C485.999 28.8939 485.999 28.8939 485.999 28.8939C485.999 28.8939 485.999 28.8939 485.999 28.8939C485.999 28.8939 485.999 28.8939 485.999 28.8939C485.999 28.8939 485.999 28.8939 485.999 28.8939C485.999 28.8939 485.999 28.8939 485.999 28.8939C485.999 28.8939 485.999 28.8939 485.999 28.8939C485.999 28.8939 485.999 28.8939 485.999 28.8939C485.999 28.8939 485.999 28.8939 485.999 28.8939C485.999 28.8939 485.999 28.8939 485.999 28.8939C485.999 28.8939 485.999 28.8939 485.999 28.8939C485.999 28.8939 485.999 28.8939 485.999 28.8939C485.999 28.8939 485.999 28.8939 485.999 28.8939C485.999 28.8939 485.999 28.8939 485.999 28.8939C485.999 28.8939 485.999 28.8939 485.999 28.8939C485.999 28.8939 485.999 28.8939 485.999 28.8939C485.999 28.8939 485.999 28.8939 485.999 28.8939C485.999 28.8939 485.999 28.8939 485.999 28.8939C485.999 28.8939 485.999 28.8939 485.999 28.8939C485.999 28.8939 485.999 28.8939 485.999 28.8939C485.999 28.8939 485.999 28.8939 485.999 28.8939C485.999 28.8939 485.999 28.8939 485.999 28.8939C485.999 28.8939 485.999 28.8939 485.999 28.8939C485.999 28.8939 485.999 28.8939 485.999 28.8939C485.999 28.8939 485.999 28.8939 485.999 28.8939C485.999 28.8939 485.999 28.8939 485.999 28.8939C485.999 28.8939 485.999 28.8939 485.999 28.8939C485.999 28.8939 485.999 28.8939 485.999 28.8939C485.999 28.8939 485.999 28.8939 485.999 28.8939C485.999 28.8939 485.999 28.8939 485.999 28.8939C485.999 28.8939 485.999 28.8939 485.999 28.8939C485.999 28.8939 485.999 28.8939 485.999 28.8939C485.999 28.8939 485.999 28.8939 485.999 28.8939C485.999 28.8939 485.999 28.8939 485.999 28.8939C485.999 28.8939 485.999 28.8939 485.999 28.8939C485.999 28.8939 485.999 28.8939 485.999 28.8939C485.999 28.8939 485.999 28.8939 485.999 28.8939C485.999 28.8939 485.999 28.8939 485.999 28.8939C485.999 28.8939 485.999 28.8939 485.999 28.8939C485.999 28.8939 485.999 28.8939 485.999 28.8939C485.999 28.8939 485.999 28.8939 485.999 28.8939C485.999 28.8939 485.999 28.8939 485.999 28.8939C485.999 28.8939 485.999 28.8939 485.999 28.8939C485.999 28.8939 485.999 28.8939 485.999 28.8939C485.999 28.8939 485.999 28.8939 485.999 28.8939C485.999 28.8939 485.999 28.8939 485.999 28.8939C485.999 28.8939 485.999 28.8939 485.999 28.8939C485.999 28.8939 485.999 28.8939 485.999 28.8939C485.999 28.8939 485.999 28.8939 485.999 28.8939C485.999 28.8939 485.999 28.8939 485.999 28.8939C485.999 28.8939 485.999 28.8939 485.999 28.8939C485.999 28.8939 485.999 28.8939 485.999 28.8939C485.999 28.8939 485.999 28.8939 485.999 28.8939C485.999 28.8939 485.999 28.8939 485.999 28.8939C485.999 28.8939 485.999 28.8939 485.999 28.8939C485.999 28.8939 485.999 28.8939 485.999 28.8939C485.999 28.8939 485.999 28.8939 485.999 28.8939C485.999 28.8939 485.999 28.8939 485.999 28.8939C485.999 28.8939 485.999 28.8939 485.999 28.8939C485.999 28.8939 485.999 28.8939 485.999 28.8939C485.999 28.8939 485.999 28.8939 485.999 28.8939C485.999 28.8939 485.999 28.8939 485.999 28.8939C485.999 28.8939 485.999 28.8939 485.999 28.8939C485.999 28.8939 485.999 28.8939 485.999 28.8939C486 28.8939 486 28.8939 486 28.8939C486 28.8939 486 28.8939 486 28.8939C486 28.8939 486 28.8939 486 28.8939C486 28.8939 486 28.8939 486 28.8939C486 28.8939 486 28.8939 486 28.8939C486 28.8939 486 28.8939 486 28.8939C486 28.8939 486 28.8939 486 28.8939C486 28.8939 486 28.8939 486 28.8939C486 28.8939 486 28.8939 486 28.8939C486 28.8939 486 28.8939 486 28.8939C486 28.8939 486 28.8939 486 28.8939C486 28.8939 486 28.8939 486 28.8939C486 28.8939 486 28.8939 486 28.8939C486 28.8939 486 28.8939 486 28.8939C486 28.8939 486 28.8939 486 28.8939C486 28.8939 486 28.8939 486 28.8939C486 28.8939 486 28.8939 486 28.8939C486 28.8939 486 28.8939 486 28.8939C486 28.8939 486 28.8939 486 28.8939C486 28.8939 486 28.8939 486 28.8939C486 28.8939 486 28.8939 486 28.8939C486 28.8939 486 28.8939 486 28.8939C486 28.8939 486 28.8939 486 28.8939C486 28.8939 486 28.8939 486 28.8939C486 28.8939 486 28.8939 486 28.8939C486 28.8939 486 28.8939 486 28.8939C486 28.8939 486 28.8939 486 28.8939C486 28.8939 486 28.8939 486 28.8939C486 28.8939 486 28.8939 486 28.8939C486 28.8939 486 28.8939 486 28.8939C486 28.8939 486 28.8939 486 28.8939C486 28.8939 486 28.8939 486 28.8939C486 28.8939 486 28.8939 486 28.8939C486 28.8939 486 28.8939 486 28.8939C486 28.8939 486 28.8939 486 28.8939C486 28.8939 486 28.8939 486 28.8939C486 28.8939 486 28.8939 486 28.8939C486 28.8939 486 28.8939 486 28.8939C486 28.8939 486 28.8939 486 28.8939C486 28.8939 486 28.8939 486 28.8939C486 28.8939 486 28.8939 486 28.8939C486 28.8939 486 28.8939 486 28.8939C486 28.8939 486 28.8939 486 28.8939C486 28.8939 486 28.8939 486 28.8939C486 28.8939 486 28.8939 486 28.8939C486 28.8939 486 28.8939 486 28.8939C486 28.8939 486 28.8939 486 28.8939C486 28.8939 486 28.8939 486 28.8939C486 28.8939 486 28.8939 486 28.8939C486 28.8939 486 28.8939 486 28.8939C486 28.8939 486 28.8939 486 28.8939C486 28.8939 486 28.8939 486 28.8939C486 28.8939 486 28.8939 486 28.8939C486 28.8939 486 28.8939 486 28.8939C486 28.8939 486 28.8939 486 28.8939C486 28.8939 486 28.8939 486 28.8939C486 28.8939 486 28.8939 486 28.8939C486 28.8939 486 28.8939 486 28.8939C486 28.8939 486 28.8939 486 28.8939C486 28.8939 486 28.8939 486 28.8939C486 28.8939 486 28.8939 486 28.8939C486 28.8939 486 28.8939 486 28.8939C486 28.8939 486 28.8939 486 28.8939C486 28.8939 486 28.8939 486 28.8939C486 28.8939 486 28.8939 486 28.8939C486 28.8939 486 28.8939 486 28.8939C486 28.8939 486 28.8939 486 28.8939C486 28.8939 486 28.8939 486 28.8939C486 28.8939 486 28.8939 486 28.8939C486 28.8939 486 28.8939 486 28.8939C486 28.8939 486 28.8939 486 28.8939C486 28.8939 486 28.8939 486 28.8939C486 28.8939 486 28.8939 486 28.8939C486 28.8939 486 28.8939 486 28.8939C486 28.8939 486 28.8939 486 28.8939C486 28.8939 486 28.8939 486 28.8939C486 28.8939 486 28.8939 486 28.8939C486 28.8939 486 28.8939 486 28.8939C486 28.8939 486 28.8939 486 28.8939C486 28.8939 486 28.8939 486 28.8939C486 28.8939 486 28.8939 486 28.8939C486 28.8939 486 28.8939 486 28.8939C486 28.8939 486 28.8939 486 28.8939C486 28.8939 486 28.8939 486 28.8939C486 28.8939 486 28.8939 486 28.8939V27.8939ZM485.997 27.8939C473.014 27.8939 462.547 18.0616 462.547 6.00238H461.547C461.547 18.6762 472.526 28.8939 485.997 28.8939V27.8939ZM462.547 6.00238C462.547 6.00238 462.547 6.00238 462.547 6.00238C462.547 6.00238 462.547 6.00237 462.547 6.00237C462.547 6.00237 462.547 6.00237 462.547 6.00237C462.547 6.00237 462.547 6.00237 462.547 6.00236C462.547 6.00236 462.547 6.00236 462.547 6.00236C462.547 6.00236 462.547 6.00236 462.547 6.00235C462.547 6.00235 462.547 6.00235 462.547 6.00235C462.547 6.00235 462.547 6.00235 462.547 6.00235C462.547 6.00234 462.547 6.00234 462.547 6.00234C462.547 6.00234 462.547 6.00234 462.547 6.00234C462.547 6.00233 462.547 6.00233 462.547 6.00233C462.547 6.00233 462.547 6.00233 462.547 6.00233C462.547 6.00232 462.547 6.00232 462.547 6.00232C462.547 6.00232 462.547 6.00232 462.547 6.00232C462.547 6.00232 462.547 6.00231 462.547 6.00231C462.547 6.00231 462.547 6.00231 462.547 6.00231C462.547 6.00231 462.547 6.0023 462.547 6.0023C462.547 6.0023 462.547 6.0023 462.547 6.0023C462.547 6.0023 462.547 6.0023 462.547 6.00229C462.547 6.00229 462.547 6.00229 462.547 6.00229C462.547 6.00229 462.547 6.00229 462.547 6.00228C462.547 6.00228 462.547 6.00228 462.547 6.00228C462.547 6.00228 462.547 6.00228 462.547 6.00228C462.547 6.00227 462.547 6.00227 462.547 6.00227C462.547 6.00227 462.547 6.00227 462.547 6.00227C462.547 6.00226 462.547 6.00226 462.547 6.00226C462.547 6.00226 462.547 6.00226 462.547 6.00226C462.547 6.00226 462.547 6.00225 462.547 6.00225C462.547 6.00225 462.547 6.00225 462.547 6.00225C462.547 6.00225 462.547 6.00224 462.547 6.00224C462.547 6.00224 462.547 6.00224 462.547 6.00224C462.547 6.00224 462.547 6.00223 462.547 6.00223C462.547 6.00223 462.547 6.00223 462.547 6.00223C462.547 6.00223 462.547 6.00223 462.547 6.00222C462.547 6.00222 462.547 6.00222 462.547 6.00222C462.547 6.00222 462.547 6.00222 462.547 6.00221C462.547 6.00221 462.547 6.00221 462.547 6.00221C462.547 6.00221 462.547 6.00221 462.547 6.00221C462.547 6.0022 462.547 6.0022 462.547 6.0022C462.547 6.0022 462.547 6.0022 462.547 6.0022C462.547 6.00219 462.547 6.00219 462.547 6.00219C462.547 6.00219 462.547 6.00219 462.547 6.00219C462.547 6.00219 462.547 6.00218 462.547 6.00218C462.547 6.00218 462.547 6.00218 462.547 6.00218C462.547 6.00218 462.547 6.00217 462.547 6.00217C462.547 6.00217 462.547 6.00217 462.547 6.00217C462.547 6.00217 462.547 6.00217 462.547 6.00216C462.547 6.00216 462.547 6.00216 462.547 6.00216C462.547 6.00216 462.547 6.00216 462.547 6.00215C462.547 6.00215 462.547 6.00215 462.547 6.00215C462.547 6.00215 462.547 6.00215 462.547 6.00214C462.547 6.00214 462.547 6.00214 462.547 6.00214C462.547 6.00214 462.547 6.00214 462.547 6.00214C462.547 6.00213 462.547 6.00213 462.547 6.00213C462.547 6.00213 462.547 6.00213 462.547 6.00213C462.547 6.00212 462.547 6.00212 462.547 6.00212C462.547 6.00212 462.547 6.00212 462.547 6.00212C462.547 6.00212 462.547 6.00211 462.547 6.00211C462.547 6.00211 462.547 6.00211 462.547 6.00211C462.547 6.00211 462.547 6.0021 462.547 6.0021C462.547 6.0021 462.547 6.0021 462.547 6.0021C462.547 6.0021 462.547 6.0021 462.547 6.00209C462.547 6.00209 462.547 6.00209 462.547 6.00209C462.547 6.00209 462.547 6.00209 462.547 6.00208C462.547 6.00208 462.547 6.00208 462.547 6.00208C462.547 6.00208 462.547 6.00208 462.547 6.00208C462.547 6.00207 462.547 6.00207 462.547 6.00207C462.547 6.00207 462.547 6.00207 462.547 6.00207C462.547 6.00206 462.547 6.00206 462.547 6.00206C462.547 6.00206 462.547 6.00206 462.547 6.00206C462.547 6.00206 462.547 6.00205 462.547 6.00205C462.547 6.00205 462.547 6.00205 462.547 6.00205C462.547 6.00205 462.547 6.00204 462.547 6.00204C462.547 6.00204 462.547 6.00204 462.547 6.00204C462.547 6.00204 462.547 6.00203 462.547 6.00203C462.547 6.00203 462.547 6.00203 462.547 6.00203C462.547 6.00203 462.547 6.00203 462.547 6.00202C462.547 6.00202 462.547 6.00202 462.547 6.00202C462.547 6.00202 462.547 6.00202 462.547 6.00201C462.547 6.00201 462.547 6.00201 462.547 6.00201C462.547 6.00201 462.547 6.00201 462.547 6.00201C462.547 6.002 462.547 6.002 462.547 6.002C462.547 6.002 462.547 6.002 462.547 6.002C462.547 6.00199 462.547 6.00199 462.547 6.00199C462.547 6.00199 462.547 6.00199 462.547 6.00199C462.547 6.00199 462.547 6.00198 462.547 6.00198C462.547 6.00198 462.547 6.00198 462.547 6.00198C462.547 6.00198 462.547 6.00197 462.547 6.00197C462.547 6.00197 462.547 6.00197 462.547 6.00197C462.547 6.00197 462.547 6.00197 462.547 6.00196C462.547 6.00196 462.547 6.00196 462.547 6.00196C462.547 6.00196 462.547 6.00196 462.547 6.00195C462.547 6.00195 462.547 6.00195 462.547 6.00195C462.547 6.00195 462.547 6.00195 462.547 6.00194C462.547 6.00194 462.547 6.00194 462.547 6.00194C462.547 6.00194 462.547 6.00194 462.547 6.00194C462.547 6.00193 462.547 6.00193 462.547 6.00193C462.547 6.00193 462.547 6.00193 462.547 6.00193C462.547 6.00192 462.547 6.00192 462.547 6.00192C462.547 6.00192 462.547 6.00192 462.547 6.00192C462.547 6.00192 462.547 6.00191 462.547 6.00191C462.547 6.00191 462.547 6.00191 462.547 6.00191C462.547 6.00191 462.547 6.0019 462.547 6.0019C462.547 6.0019 462.547 6.0019 462.547 6.0019C462.547 6.0019 462.547 6.0019 462.547 6.00189C462.547 6.00189 462.547 6.00189 462.547 6.00189C462.547 6.00189 462.547 6.00189 462.547 6.00188C462.547 6.00188 462.547 6.00188 462.547 6.00188C462.547 6.00188 462.547 6.00188 462.547 6.00188C462.547 6.00187 462.547 6.00187 462.547 6.00187C462.547 6.00187 462.547 6.00187 462.547 6.00187C462.547 6.00186 462.547 6.00186 462.547 6.00186C462.547 6.00186 462.547 6.00186 462.547 6.00186C462.547 6.00185 462.547 6.00185 462.547 6.00185C462.547 6.00185 462.547 6.00185 462.547 6.00185C462.547 6.00185 462.547 6.00184 462.547 6.00184C462.547 6.00184 462.547 6.00184 462.547 6.00184C462.547 6.00184 462.547 6.00183 462.547 6.00183C462.547 6.00183 462.547 6.00183 462.547 6.00183C462.547 6.00183 462.547 6.00183 462.547 6.00182C462.547 6.00182 462.547 6.00182 462.547 6.00182C462.547 6.00182 462.547 6.00182 462.547 6.00181C462.547 6.00181 462.547 6.00181 462.547 6.00181C462.547 6.00181 462.547 6.00181 462.547 6.00181C462.547 6.0018 462.547 6.0018 462.547 6.0018C462.547 6.0018 462.547 6.0018 462.547 6.0018C462.547 6.00179 462.547 6.00179 462.547 6.00179C462.547 6.00179 462.547 6.00179 462.547 6.00179C462.547 6.00179 462.547 6.00178 462.547 6.00178C462.547 6.00178 462.547 6.00178 462.547 6.00178C462.547 6.00178 462.547 6.00177 462.547 6.00177C462.547 6.00177 462.547 6.00177 462.547 6.00177C462.547 6.00177 462.547 6.00176 462.547 6.00176C462.547 6.00176 462.547 6.00176 462.547 6.00176C462.547 6.00176 462.547 6.00176 462.547 6.00175C462.547 6.00175 462.547 6.00175 462.547 6.00175C462.547 6.00175 462.547 6.00175 462.547 6.00174C462.547 6.00174 462.547 6.00174 462.547 6.00174C462.547 6.00174 462.547 6.00174 462.547 6.00174C462.547 6.00173 462.547 6.00173 462.547 6.00173C462.547 6.00173 462.547 6.00173 462.547 6.00173C462.547 6.00172 462.547 6.00172 462.547 6.00172C462.547 6.00172 462.547 6.00172 462.547 6.00172C462.547 6.00172 462.547 6.00171 462.547 6.00171C462.547 6.00171 462.547 6.00171 462.547 6.00171C462.547 6.00171 462.547 6.0017 462.547 6.0017C462.547 6.0017 462.547 6.0017 462.547 6.0017C462.547 6.0017 462.547 6.0017 462.547 6.00169C462.547 6.00169 462.547 6.00169 462.547 6.00169C462.547 6.00169 462.547 6.00169 462.547 6.00168C462.547 6.00168 462.547 6.00168 462.547 6.00168C462.547 6.00168 462.547 6.00168 462.547 6.00168C462.547 6.00167 462.547 6.00167 462.547 6.00167C462.547 6.00167 462.547 6.00167 462.547 6.00167C462.547 6.00166 462.547 6.00166 462.547 6.00166C462.547 6.00166 462.547 6.00166 462.547 6.00166C462.547 6.00165 462.547 6.00165 462.547 6.00165C462.547 6.00165 462.547 6.00165 462.547 6.00165C462.547 6.00165 462.547 6.00164 462.547 6.00164C462.547 6.00164 462.547 6.00164 462.547 6.00164C462.547 6.00164 462.547 6.00163 462.547 6.00163C462.547 6.00163 462.547 6.00163 462.547 6.00163C462.547 6.00163 462.547 6.00163 462.547 6.00162C462.547 6.00162 462.547 6.00162 462.547 6.00162C462.547 6.00162 462.547 6.00162 462.547 6.00161C462.547 6.00161 462.547 6.00161 462.547 6.00161C462.547 6.00161 462.547 6.00161 462.547 6.00161C462.547 6.0016 462.547 6.0016 462.547 6.0016C462.547 6.0016 462.547 6.0016 462.547 6.0016C462.547 6.00159 462.547 6.00159 462.547 6.00159C462.547 6.00159 462.547 6.00159 462.547 6.00159C462.547 6.00159 462.547 6.00158 462.547 6.00158C462.547 6.00158 462.547 6.00158 462.547 6.00158C462.547 6.00158 462.547 6.00157 462.547 6.00157C462.547 6.00157 462.547 6.00157 462.547 6.00157C462.547 6.00157 462.547 6.00156 462.547 6.00156C462.547 6.00156 462.547 6.00156 462.547 6.00156C462.547 6.00156 462.547 6.00156 462.547 6.00155C462.547 6.00155 462.547 6.00155 462.547 6.00155C462.547 6.00155 462.547 6.00155 462.547 6.00154C462.547 6.00154 462.547 6.00154 462.547 6.00154C462.547 6.00154 462.547 6.00154 462.547 6.00154C462.547 6.00153 462.547 6.00153 462.547 6.00153C462.547 6.00153 462.547 6.00153 462.547 6.00153C462.547 6.00152 462.547 6.00152 462.547 6.00152C462.547 6.00152 462.547 6.00152 462.547 6.00152C462.547 6.00152 462.547 6.00151 462.547 6.00151C462.547 6.00151 462.547 6.00151 462.547 6.00151C462.547 6.00151 462.547 6.0015 462.547 6.0015C462.547 6.0015 462.547 6.0015 462.547 6.0015C462.547 6.0015 462.547 6.0015 462.547 6.00149C462.547 6.00149 462.547 6.00149 462.547 6.00149C462.547 6.00149 462.547 6.00149 462.547 6.00148C462.547 6.00148 462.547 6.00148 462.547 6.00148C462.547 6.00148 462.547 6.00148 462.547 6.00147C462.547 6.00147 462.547 6.00147 462.547 6.00147C462.547 6.00147 462.547 6.00147 462.547 6.00147C462.547 6.00146 462.547 6.00146 462.547 6.00146C462.547 6.00146 462.547 6.00146 462.547 6.00146C462.547 6.00145 462.547 6.00145 462.547 6.00145C462.547 6.00145 462.547 6.00145 462.547 6.00145C462.547 6.00145 462.547 6.00144 462.547 6.00144C462.547 6.00144 462.547 6.00144 462.547 6.00144C462.547 6.00144 462.547 6.00143 462.547 6.00143C462.547 6.00143 462.547 6.00143 462.547 6.00143C462.547 6.00143 462.547 6.00143 462.547 6.00142C462.547 6.00142 462.547 6.00142 462.547 6.00142C462.547 6.00142 462.547 6.00142 462.547 6.00141C462.547 6.00141 462.547 6.00141 462.547 6.00141C462.547 6.00141 462.547 6.00141 462.547 6.00141C462.547 6.0014 462.547 6.0014 462.547 6.0014C462.547 6.0014 462.547 6.0014 462.547 6.0014C462.547 6.00139 462.547 6.00139 462.547 6.00139C462.547 6.00139 462.547 6.00139 462.547 6.00139C462.547 6.00139 462.547 6.00138 462.547 6.00138C462.547 6.00138 462.547 6.00138 462.547 6.00138C462.547 6.00138 462.547 6.00137 462.547 6.00137C462.547 6.00137 462.547 6.00137 462.547 6.00137C462.547 6.00137 462.547 6.00136 462.547 6.00136C462.547 6.00136 462.547 6.00136 462.547 6.00136C462.547 6.00136 462.547 6.00136 462.547 6.00135C462.547 6.00135 462.547 6.00135 462.547 6.00135C462.547 6.00135 462.547 6.00135 462.547 6.00134C462.547 6.00134 462.547 6.00134 462.547 6.00134C462.547 6.00134 462.547 6.00134 462.547 6.00134C462.547 6.00133 462.547 6.00133 462.547 6.00133C462.547 6.00133 462.547 6.00133 462.547 6.00133C462.547 6.00132 462.547 6.00132 462.547 6.00132C462.547 6.00132 462.547 6.00132 462.547 6.00132C462.547 6.00132 462.547 6.00131 462.547 6.00131C462.547 6.00131 462.547 6.00131 462.547 6.00131C462.547 6.00131 462.547 6.0013 462.547 6.0013C462.547 6.0013 462.547 6.0013 462.547 6.0013C462.547 6.0013 462.547 6.0013 462.547 6.00129C462.547 6.00129 462.547 6.00129 462.547 6.00129C462.547 6.00129 462.547 6.00129 462.547 6.00128C462.547 6.00128 462.547 6.00128 462.547 6.00128C462.547 6.00128 462.547 6.00128 462.547 6.00127C462.547 6.00127 462.547 6.00127 462.547 6.00127C462.547 6.00127 462.547 6.00127 462.547 6.00127C462.547 6.00126 462.547 6.00126 462.547 6.00126C462.547 6.00126 462.547 6.00126 462.547 6.00126C462.547 6.00125 462.547 6.00125 462.547 6.00125C462.547 6.00125 462.547 6.00125 462.547 6.00125C462.547 6.00125 462.547 6.00124 462.547 6.00124C462.547 6.00124 462.547 6.00124 462.547 6.00124C462.547 6.00124 462.547 6.00123 462.547 6.00123C462.547 6.00123 462.547 6.00123 462.547 6.00123C462.547 6.00123 462.547 6.00123 462.547 6.00122C462.547 6.00122 462.547 6.00122 462.547 6.00122C462.547 6.00122 462.547 6.00122 462.547 6.00121C462.547 6.00121 462.547 6.00121 462.547 6.00121C462.547 6.00121 462.547 6.00121 462.547 6.00121C462.547 6.0012 462.547 6.0012 462.547 6.0012C462.547 6.0012 462.547 6.0012 462.547 6.0012C462.547 6.00119 462.547 6.00119 462.547 6.00119C462.547 6.00119 462.547 6.00119 462.547 6.00119C462.547 6.00118 462.547 6.00118 462.547 6.00118C462.547 6.00118 462.547 6.00118 462.547 6.00118C462.547 6.00118 462.547 6.00117 462.547 6.00117C462.547 6.00117 462.547 6.00117 462.547 6.00117C462.547 6.00117 462.547 6.00116 462.547 6.00116C462.547 6.00116 462.547 6.00116 462.547 6.00116C462.547 6.00116 462.547 6.00116 462.547 6.00115C462.547 6.00115 462.547 6.00115 462.547 6.00115C462.547 6.00115 462.547 6.00115 462.547 6.00114C462.547 6.00114 462.547 6.00114 462.547 6.00114C462.547 6.00114 462.547 6.00114 462.547 6.00114C462.547 6.00113 462.547 6.00113 462.547 6.00113C462.547 6.00113 462.547 6.00113 462.547 6.00113C462.547 6.00112 462.547 6.00112 462.547 6.00112C462.547 6.00112 462.547 6.00112 462.547 6.00112C462.547 6.00112 462.547 6.00111 462.547 6.00111C462.547 6.00111 462.547 6.00111 462.547 6.00111C462.547 6.00111 462.547 6.0011 462.547 6.0011C462.547 6.0011 462.547 6.0011 462.547 6.0011C462.547 6.0011 462.547 6.00109 462.547 6.00109C462.547 6.00109 462.547 6.00109 462.547 6.00109C462.547 6.00109 462.547 6.00109 462.547 6.00108C462.547 6.00108 462.547 6.00108 462.547 6.00108C462.547 6.00108 462.547 6.00108 462.547 6.00107C462.547 6.00107 462.547 6.00107 462.547 6.00107C462.547 6.00107 462.547 6.00107 462.547 6.00107C462.547 6.00106 462.547 6.00106 462.547 6.00106C462.547 6.00106 462.547 6.00106 462.547 6.00106C462.547 6.00105 462.547 6.00105 462.547 6.00105C462.547 6.00105 462.547 6.00105 462.547 6.00105C462.547 6.00105 462.547 6.00104 462.547 6.00104C462.547 6.00104 462.547 6.00104 462.547 6.00104C462.547 6.00104 462.547 6.00103 462.547 6.00103C462.547 6.00103 462.547 6.00103 462.547 6.00103C462.547 6.00103 462.547 6.00103 462.547 6.00102C462.547 6.00102 462.547 6.00102 462.547 6.00102C462.547 6.00102 462.547 6.00102 462.547 6.00101C462.547 6.00101 462.547 6.00101 462.547 6.00101C462.547 6.00101 462.547 6.00101 462.547 6.00101C462.547 6.001 462.547 6.001 462.547 6.001C462.547 6.001 462.547 6.001 462.547 6.001C462.547 6.00099 462.547 6.00099 462.547 6.00099C462.547 6.00099 462.547 6.00099 462.547 6.00099C462.547 6.00098 462.547 6.00098 462.547 6.00098C462.547 6.00098 462.547 6.00098 462.547 6.00098C462.547 6.00098 462.547 6.00097 462.547 6.00097C462.547 6.00097 462.547 6.00097 462.547 6.00097C462.547 6.00097 462.547 6.00096 462.547 6.00096C462.547 6.00096 462.547 6.00096 462.547 6.00096C462.547 6.00096 462.547 6.00096 462.547 6.00095C462.547 6.00095 462.547 6.00095 462.547 6.00095C462.547 6.00095 462.547 6.00095 462.547 6.00094C462.547 6.00094 462.547 6.00094 462.547 6.00094C462.547 6.00094 462.547 6.00094 462.547 6.00094C462.547 6.00093 462.547 6.00093 462.547 6.00093C462.547 6.00093 462.547 6.00093 462.547 6.00093C462.547 6.00092 462.547 6.00092 462.547 6.00092C462.547 6.00092 462.547 6.00092 462.547 6.00092C462.547 6.00092 462.547 6.00091 462.547 6.00091C462.547 6.00091 462.547 6.00091 462.547 6.00091C462.547 6.00091 462.547 6.0009 462.547 6.0009C462.547 6.0009 462.547 6.0009 462.547 6.0009C462.547 6.0009 462.547 6.00089 462.547 6.00089C462.547 6.00089 462.547 6.00089 462.547 6.00089C462.547 6.00089 462.547 6.00089 462.547 6.00088C462.547 6.00088 462.547 6.00088 462.547 6.00088C462.547 6.00088 462.547 6.00088 462.547 6.00087C462.547 6.00087 462.547 6.00087 462.547 6.00087C462.547 6.00087 462.547 6.00087 462.547 6.00087C462.547 6.00086 462.547 6.00086 462.547 6.00086C462.547 6.00086 462.547 6.00086 462.547 6.00086C462.547 6.00085 462.547 6.00085 462.547 6.00085C462.547 6.00085 462.547 6.00085 462.547 6.00085C462.547 6.00085 462.547 6.00084 462.547 6.00084C462.547 6.00084 462.547 6.00084 462.547 6.00084C462.547 6.00084 462.547 6.00083 462.547 6.00083C462.547 6.00083 462.547 6.00083 462.547 6.00083C462.547 6.00083 462.547 6.00083 462.547 6.00082C462.547 6.00082 462.547 6.00082 462.547 6.00082C462.547 6.00082 462.547 6.00082 462.547 6.00081C462.547 6.00081 462.547 6.00081 462.547 6.00081C462.547 6.00081 462.547 6.00081 462.547 6.0008C462.547 6.0008 462.547 6.0008 462.547 6.0008C462.547 6.0008 462.547 6.0008 462.547 6.0008C462.547 6.00079 462.547 6.00079 462.547 6.00079C462.547 6.00079 462.547 6.00079 462.547 6.00079C462.547 6.00078 462.547 6.00078 462.547 6.00078C462.547 6.00078 462.547 6.00078 462.547 6.00078C462.547 6.00078 462.547 6.00077 462.547 6.00077C462.547 6.00077 462.547 6.00077 462.547 6.00077C462.547 6.00077 462.547 6.00076 462.547 6.00076C462.547 6.00076 462.547 6.00076 462.547 6.00076C462.547 6.00076 462.547 6.00076 462.547 6.00075C462.547 6.00075 462.547 6.00075 462.547 6.00075C462.547 6.00075 462.547 6.00075 462.547 6.00074C462.547 6.00074 462.547 6.00074 462.547 6.00074C462.547 6.00074 462.547 6.00074 462.547 6.00074C462.547 6.00073 462.547 6.00073 462.547 6.00073C462.547 6.00073 462.547 6.00073 462.547 6.00073C462.547 6.00072 462.547 6.00072 462.547 6.00072C462.547 6.00072 462.547 6.00072 462.547 6.00072C462.547 6.00071 462.547 6.00071 462.547 6.00071C462.547 6.00071 462.547 6.00071 462.547 6.00071C462.547 6.00071 462.547 6.0007 462.547 6.0007C462.547 6.0007 462.547 6.0007 462.547 6.0007C462.547 6.0007 462.547 6.00069 462.547 6.00069C462.547 6.00069 462.547 6.00069 462.547 6.00069C462.547 6.00069 462.547 6.00069 462.547 6.00068C462.547 6.00068 462.547 6.00068 462.547 6.00068C462.547 6.00068 462.547 6.00068 462.547 6.00067C462.547 6.00067 462.547 6.00067 462.547 6.00067C462.547 6.00067 462.547 6.00067 462.547 6.00067C462.547 6.00066 462.547 6.00066 462.547 6.00066C462.547 6.00066 462.547 6.00066 462.547 6.00066C462.547 6.00065 462.547 6.00065 462.547 6.00065C462.547 6.00065 462.547 6.00065 462.547 6.00065C462.547 6.00065 462.547 6.00064 462.547 6.00064C462.547 6.00064 462.547 6.00064 462.547 6.00064C462.547 6.00064 462.547 6.00063 462.547 6.00063C462.547 6.00063 462.547 6.00063 462.547 6.00063C462.547 6.00063 462.547 6.00063 462.547 6.00062C462.547 6.00062 462.547 6.00062 462.547 6.00062C462.547 6.00062 462.547 6.00062 462.547 6.00061C462.547 6.00061 462.547 6.00061 462.547 6.00061C462.547 6.00061 462.547 6.00061 462.547 6.0006C462.547 6.0006 462.547 6.0006 462.547 6.0006C462.547 6.0006 462.547 6.0006 462.547 6.0006C462.547 6.00059 462.547 6.00059 462.547 6.00059C462.547 6.00059 462.547 6.00059 462.547 6.00059C462.547 6.00058 462.547 6.00058 462.547 6.00058C462.547 6.00058 462.547 6.00058 462.547 6.00058C462.547 6.00058 462.547 6.00057 462.547 6.00057C462.547 6.00057 462.547 6.00057 462.547 6.00057C462.547 6.00057 462.547 6.00056 462.547 6.00056C462.547 6.00056 462.547 6.00056 462.547 6.00056C462.547 6.00056 462.547 6.00056 462.547 6.00055C462.547 6.00055 462.547 6.00055 462.547 6.00055C462.547 6.00055 462.547 6.00055 462.547 6.00054C462.547 6.00054 462.547 6.00054 462.547 6.00054C462.547 6.00054 462.547 6.00054 462.547 6.00054C462.547 6.00053 462.547 6.00053 462.547 6.00053C462.547 6.00053 462.547 6.00053 462.547 6.00053C462.547 6.00052 462.547 6.00052 462.547 6.00052C462.547 6.00052 462.547 6.00052 462.547 6.00052C462.547 6.00051 462.547 6.00051 462.547 6.00051C462.547 6.00051 462.547 6.00051 462.547 6.00051C462.547 6.00051 462.547 6.0005 462.547 6.0005C462.547 6.0005 462.547 6.0005 462.547 6.0005C462.547 6.0005 462.547 6.00049 462.547 6.00049C462.547 6.00049 462.547 6.00049 462.547 6.00049C462.547 6.00049 462.547 6.00049 462.547 6.00048C462.547 6.00048 462.547 6.00048 462.547 6.00048C462.547 6.00048 462.547 6.00048 462.547 6.00047C462.547 6.00047 462.547 6.00047 462.547 6.00047C462.547 6.00047 462.547 6.00047 462.547 6.00047C462.547 6.00046 462.547 6.00046 462.547 6.00046C462.547 6.00046 462.547 6.00046 462.547 6.00046C462.547 6.00045 462.547 6.00045 462.547 6.00045C462.547 6.00045 462.547 6.00045 462.547 6.00045C462.547 6.00045 462.547 6.00044 462.547 6.00044C462.547 6.00044 462.547 6.00044 462.547 6.00044C462.547 6.00044 462.547 6.00043 462.547 6.00043C462.547 6.00043 462.547 6.00043 462.547 6.00043C462.547 6.00043 462.547 6.00042 462.547 6.00042C462.547 6.00042 462.547 6.00042 462.547 6.00042C462.547 6.00042 462.547 6.00042 462.547 6.00041C462.547 6.00041 462.547 6.00041 462.547 6.00041C462.547 6.00041 462.547 6.00041 462.547 6.0004C462.547 6.0004 462.547 6.0004 462.547 6.0004C462.547 6.0004 462.547 6.0004 462.547 6.0004C462.547 6.00039 462.547 6.00039 462.547 6.00039C462.547 6.00039 462.547 6.00039 462.547 6.00039C462.547 6.00038 462.547 6.00038 462.547 6.00038C462.547 6.00038 462.547 6.00038 462.547 6.00038C462.547 6.00038 462.547 6.00037 462.547 6.00037C462.547 6.00037 462.547 6.00037 462.547 6.00037C462.547 6.00037 462.547 6.00036 462.547 6.00036C462.547 6.00036 462.547 6.00036 462.547 6.00036C462.547 6.00036 462.547 6.00036 462.547 6.00035C462.547 6.00035 462.547 6.00035 462.547 6.00035C462.547 6.00035 462.547 6.00035 462.547 6.00034C462.547 6.00034 462.547 6.00034 462.547 6.00034C462.547 6.00034 462.547 6.00034 462.547 6.00034C462.547 6.00033 462.547 6.00033 462.547 6.00033C462.547 6.00033 462.547 6.00033 462.547 6.00033C462.547 6.00032 462.547 6.00032 462.547 6.00032C462.547 6.00032 462.547 6.00032 462.547 6.00032C462.547 6.00031 462.547 6.00031 462.547 6.00031C462.547 6.00031 462.547 6.00031 462.547 6.00031C462.547 6.00031 462.547 6.0003 462.547 6.0003C462.547 6.0003 462.547 6.0003 462.547 6.0003C462.547 6.0003 462.547 6.00029 462.547 6.00029C462.547 6.00029 462.547 6.00029 462.547 6.00029C462.547 6.00029 462.547 6.00029 462.547 6.00028C462.547 6.00028 462.547 6.00028 462.547 6.00028C462.547 6.00028 462.547 6.00028 462.547 6.00027C462.547 6.00027 462.547 6.00027 462.547 6.00027C462.547 6.00027 462.547 6.00027 462.547 6.00027C462.547 6.00026 462.547 6.00026 462.547 6.00026C462.547 6.00026 462.547 6.00026 462.547 6.00026C462.547 6.00025 462.547 6.00025 462.547 6.00025C462.547 6.00025 462.547 6.00025 462.547 6.00025C462.547 6.00025 462.547 6.00024 462.547 6.00024C462.547 6.00024 462.547 6.00024 462.547 6.00024C462.547 6.00024 462.547 6.00023 462.547 6.00023C462.547 6.00023 462.547 6.00023 462.547 6.00023C462.547 6.00023 462.547 6.00022 462.547 6.00022C462.547 6.00022 462.547 6.00022 462.547 6.00022C462.547 6.00022 462.547 6.00022 462.547 6.00021C462.547 6.00021 462.547 6.00021 462.547 6.00021C462.547 6.00021 462.547 6.00021 462.547 6.0002C462.547 6.0002 462.547 6.0002 462.547 6.0002C462.547 6.0002 462.547 6.0002 462.547 6.0002C462.547 6.00019 462.547 6.00019 462.547 6.00019C462.547 6.00019 462.547 6.00019 462.547 6.00019C462.547 6.00018 462.547 6.00018 462.547 6.00018C462.547 6.00018 462.547 6.00018 462.547 6.00018C462.547 6.00018 462.547 6.00017 462.547 6.00017C462.547 6.00017 462.547 6.00017 462.547 6.00017C462.547 6.00017 462.547 6.00016 462.547 6.00016C462.547 6.00016 462.547 6.00016 462.547 6.00016C462.547 6.00016 462.547 6.00016 462.547 6.00015C462.547 6.00015 462.547 6.00015 462.547 6.00015C462.547 6.00015 462.547 6.00015 462.547 6.00014C462.547 6.00014 462.547 6.00014 462.547 6.00014C462.547 6.00014 462.547 6.00014 462.547 6.00013C462.547 6.00013 462.547 6.00013 462.547 6.00013C462.547 6.00013 462.547 6.00013 462.547 6.00013C462.547 6.00012 462.547 6.00012 462.547 6.00012C462.547 6.00012 462.547 6.00012 462.547 6.00012C462.547 6.00011 462.547 6.00011 462.547 6.00011C462.547 6.00011 462.547 6.00011 462.547 6.00011C462.547 6.00011 462.547 6.0001 462.547 6.0001C462.547 6.0001 462.547 6.0001 462.547 6.0001C462.547 6.0001 462.547 6.00009 462.547 6.00009C462.547 6.00009 462.547 6.00009 462.547 6.00009C462.547 6.00009 462.547 6.00009 462.547 6.00008C462.547 6.00008 462.547 6.00008 462.547 6.00008C462.547 6.00008 462.547 6.00008 462.547 6.00007C462.547 6.00007 462.547 6.00007 462.547 6.00007C462.547 6.00007 462.547 6.00007 462.547 6.00007C462.547 6.00006 462.547 6.00006 462.547 6.00006C462.547 6.00006 462.547 6.00006 462.547 6.00006C462.547 6.00005 462.547 6.00005 462.547 6.00005C462.547 6.00005 462.547 6.00005 462.547 6.00005C462.547 6.00004 462.547 6.00004 462.547 6.00004C462.547 6.00004 462.547 6.00004 462.547 6.00004C462.547 6.00004 462.547 6.00003 462.547 6.00003C462.547 6.00003 462.547 6.00003 462.547 6.00003C462.547 6.00003 462.547 6.00002 462.547 6.00002C462.547 6.00002 462.547 6.00002 462.547 6.00002C462.547 6.00002 462.547 6.00002 462.547 6.00001C462.547 6.00001 462.547 6.00001 462.547 6.00001C462.547 6.00001 462.547 6.00001 462.547 6C462.547 6 462.547 6 462.547 6H461.547C461.547 6 461.547 6 461.547 6C461.547 6.00001 461.547 6.00001 461.547 6.00001C461.547 6.00001 461.547 6.00001 461.547 6.00001C461.547 6.00002 461.547 6.00002 461.547 6.00002C461.547 6.00002 461.547 6.00002 461.547 6.00002C461.547 6.00002 461.547 6.00003 461.547 6.00003C461.547 6.00003 461.547 6.00003 461.547 6.00003C461.547 6.00003 461.547 6.00004 461.547 6.00004C461.547 6.00004 461.547 6.00004 461.547 6.00004C461.547 6.00004 461.547 6.00004 461.547 6.00005C461.547 6.00005 461.547 6.00005 461.547 6.00005C461.547 6.00005 461.547 6.00005 461.547 6.00006C461.547 6.00006 461.547 6.00006 461.547 6.00006C461.547 6.00006 461.547 6.00006 461.547 6.00007C461.547 6.00007 461.547 6.00007 461.547 6.00007C461.547 6.00007 461.547 6.00007 461.547 6.00007C461.547 6.00008 461.547 6.00008 461.547 6.00008C461.547 6.00008 461.547 6.00008 461.547 6.00008C461.547 6.00009 461.547 6.00009 461.547 6.00009C461.547 6.00009 461.547 6.00009 461.547 6.00009C461.547 6.00009 461.547 6.0001 461.547 6.0001C461.547 6.0001 461.547 6.0001 461.547 6.0001C461.547 6.0001 461.547 6.00011 461.547 6.00011C461.547 6.00011 461.547 6.00011 461.547 6.00011C461.547 6.00011 461.547 6.00011 461.547 6.00012C461.547 6.00012 461.547 6.00012 461.547 6.00012C461.547 6.00012 461.547 6.00012 461.547 6.00013C461.547 6.00013 461.547 6.00013 461.547 6.00013C461.547 6.00013 461.547 6.00013 461.547 6.00013C461.547 6.00014 461.547 6.00014 461.547 6.00014C461.547 6.00014 461.547 6.00014 461.547 6.00014C461.547 6.00015 461.547 6.00015 461.547 6.00015C461.547 6.00015 461.547 6.00015 461.547 6.00015C461.547 6.00016 461.547 6.00016 461.547 6.00016C461.547 6.00016 461.547 6.00016 461.547 6.00016C461.547 6.00016 461.547 6.00017 461.547 6.00017C461.547 6.00017 461.547 6.00017 461.547 6.00017C461.547 6.00017 461.547 6.00018 461.547 6.00018C461.547 6.00018 461.547 6.00018 461.547 6.00018C461.547 6.00018 461.547 6.00018 461.547 6.00019C461.547 6.00019 461.547 6.00019 461.547 6.00019C461.547 6.00019 461.547 6.00019 461.547 6.0002C461.547 6.0002 461.547 6.0002 461.547 6.0002C461.547 6.0002 461.547 6.0002 461.547 6.0002C461.547 6.00021 461.547 6.00021 461.547 6.00021C461.547 6.00021 461.547 6.00021 461.547 6.00021C461.547 6.00022 461.547 6.00022 461.547 6.00022C461.547 6.00022 461.547 6.00022 461.547 6.00022C461.547 6.00022 461.547 6.00023 461.547 6.00023C461.547 6.00023 461.547 6.00023 461.547 6.00023C461.547 6.00023 461.547 6.00024 461.547 6.00024C461.547 6.00024 461.547 6.00024 461.547 6.00024C461.547 6.00024 461.547 6.00025 461.547 6.00025C461.547 6.00025 461.547 6.00025 461.547 6.00025C461.547 6.00025 461.547 6.00025 461.547 6.00026C461.547 6.00026 461.547 6.00026 461.547 6.00026C461.547 6.00026 461.547 6.00026 461.547 6.00027C461.547 6.00027 461.547 6.00027 461.547 6.00027C461.547 6.00027 461.547 6.00027 461.547 6.00027C461.547 6.00028 461.547 6.00028 461.547 6.00028C461.547 6.00028 461.547 6.00028 461.547 6.00028C461.547 6.00029 461.547 6.00029 461.547 6.00029C461.547 6.00029 461.547 6.00029 461.547 6.00029C461.547 6.00029 461.547 6.0003 461.547 6.0003C461.547 6.0003 461.547 6.0003 461.547 6.0003C461.547 6.0003 461.547 6.00031 461.547 6.00031C461.547 6.00031 461.547 6.00031 461.547 6.00031C461.547 6.00031 461.547 6.00031 461.547 6.00032C461.547 6.00032 461.547 6.00032 461.547 6.00032C461.547 6.00032 461.547 6.00032 461.547 6.00033C461.547 6.00033 461.547 6.00033 461.547 6.00033C461.547 6.00033 461.547 6.00033 461.547 6.00034C461.547 6.00034 461.547 6.00034 461.547 6.00034C461.547 6.00034 461.547 6.00034 461.547 6.00034C461.547 6.00035 461.547 6.00035 461.547 6.00035C461.547 6.00035 461.547 6.00035 461.547 6.00035C461.547 6.00036 461.547 6.00036 461.547 6.00036C461.547 6.00036 461.547 6.00036 461.547 6.00036C461.547 6.00036 461.547 6.00037 461.547 6.00037C461.547 6.00037 461.547 6.00037 461.547 6.00037C461.547 6.00037 461.547 6.00038 461.547 6.00038C461.547 6.00038 461.547 6.00038 461.547 6.00038C461.547 6.00038 461.547 6.00038 461.547 6.00039C461.547 6.00039 461.547 6.00039 461.547 6.00039C461.547 6.00039 461.547 6.00039 461.547 6.0004C461.547 6.0004 461.547 6.0004 461.547 6.0004C461.547 6.0004 461.547 6.0004 461.547 6.0004C461.547 6.00041 461.547 6.00041 461.547 6.00041C461.547 6.00041 461.547 6.00041 461.547 6.00041C461.547 6.00042 461.547 6.00042 461.547 6.00042C461.547 6.00042 461.547 6.00042 461.547 6.00042C461.547 6.00042 461.547 6.00043 461.547 6.00043C461.547 6.00043 461.547 6.00043 461.547 6.00043C461.547 6.00043 461.547 6.00044 461.547 6.00044C461.547 6.00044 461.547 6.00044 461.547 6.00044C461.547 6.00044 461.547 6.00045 461.547 6.00045C461.547 6.00045 461.547 6.00045 461.547 6.00045C461.547 6.00045 461.547 6.00045 461.547 6.00046C461.547 6.00046 461.547 6.00046 461.547 6.00046C461.547 6.00046 461.547 6.00046 461.547 6.00047C461.547 6.00047 461.547 6.00047 461.547 6.00047C461.547 6.00047 461.547 6.00047 461.547 6.00047C461.547 6.00048 461.547 6.00048 461.547 6.00048C461.547 6.00048 461.547 6.00048 461.547 6.00048C461.547 6.00049 461.547 6.00049 461.547 6.00049C461.547 6.00049 461.547 6.00049 461.547 6.00049C461.547 6.00049 461.547 6.0005 461.547 6.0005C461.547 6.0005 461.547 6.0005 461.547 6.0005C461.547 6.0005 461.547 6.00051 461.547 6.00051C461.547 6.00051 461.547 6.00051 461.547 6.00051C461.547 6.00051 461.547 6.00051 461.547 6.00052C461.547 6.00052 461.547 6.00052 461.547 6.00052C461.547 6.00052 461.547 6.00052 461.547 6.00053C461.547 6.00053 461.547 6.00053 461.547 6.00053C461.547 6.00053 461.547 6.00053 461.547 6.00054C461.547 6.00054 461.547 6.00054 461.547 6.00054C461.547 6.00054 461.547 6.00054 461.547 6.00054C461.547 6.00055 461.547 6.00055 461.547 6.00055C461.547 6.00055 461.547 6.00055 461.547 6.00055C461.547 6.00056 461.547 6.00056 461.547 6.00056C461.547 6.00056 461.547 6.00056 461.547 6.00056C461.547 6.00056 461.547 6.00057 461.547 6.00057C461.547 6.00057 461.547 6.00057 461.547 6.00057C461.547 6.00057 461.547 6.00058 461.547 6.00058C461.547 6.00058 461.547 6.00058 461.547 6.00058C461.547 6.00058 461.547 6.00058 461.547 6.00059C461.547 6.00059 461.547 6.00059 461.547 6.00059C461.547 6.00059 461.547 6.00059 461.547 6.0006C461.547 6.0006 461.547 6.0006 461.547 6.0006C461.547 6.0006 461.547 6.0006 461.547 6.0006C461.547 6.00061 461.547 6.00061 461.547 6.00061C461.547 6.00061 461.547 6.00061 461.547 6.00061C461.547 6.00062 461.547 6.00062 461.547 6.00062C461.547 6.00062 461.547 6.00062 461.547 6.00062C461.547 6.00063 461.547 6.00063 461.547 6.00063C461.547 6.00063 461.547 6.00063 461.547 6.00063C461.547 6.00063 461.547 6.00064 461.547 6.00064C461.547 6.00064 461.547 6.00064 461.547 6.00064C461.547 6.00064 461.547 6.00065 461.547 6.00065C461.547 6.00065 461.547 6.00065 461.547 6.00065C461.547 6.00065 461.547 6.00065 461.547 6.00066C461.547 6.00066 461.547 6.00066 461.547 6.00066C461.547 6.00066 461.547 6.00066 461.547 6.00067C461.547 6.00067 461.547 6.00067 461.547 6.00067C461.547 6.00067 461.547 6.00067 461.547 6.00067C461.547 6.00068 461.547 6.00068 461.547 6.00068C461.547 6.00068 461.547 6.00068 461.547 6.00068C461.547 6.00069 461.547 6.00069 461.547 6.00069C461.547 6.00069 461.547 6.00069 461.547 6.00069C461.547 6.00069 461.547 6.0007 461.547 6.0007C461.547 6.0007 461.547 6.0007 461.547 6.0007C461.547 6.0007 461.547 6.00071 461.547 6.00071C461.547 6.00071 461.547 6.00071 461.547 6.00071C461.547 6.00071 461.547 6.00071 461.547 6.00072C461.547 6.00072 461.547 6.00072 461.547 6.00072C461.547 6.00072 461.547 6.00072 461.547 6.00073C461.547 6.00073 461.547 6.00073 461.547 6.00073C461.547 6.00073 461.547 6.00073 461.547 6.00074C461.547 6.00074 461.547 6.00074 461.547 6.00074C461.547 6.00074 461.547 6.00074 461.547 6.00074C461.547 6.00075 461.547 6.00075 461.547 6.00075C461.547 6.00075 461.547 6.00075 461.547 6.00075C461.547 6.00076 461.547 6.00076 461.547 6.00076C461.547 6.00076 461.547 6.00076 461.547 6.00076C461.547 6.00076 461.547 6.00077 461.547 6.00077C461.547 6.00077 461.547 6.00077 461.547 6.00077C461.547 6.00077 461.547 6.00078 461.547 6.00078C461.547 6.00078 461.547 6.00078 461.547 6.00078C461.547 6.00078 461.547 6.00078 461.547 6.00079C461.547 6.00079 461.547 6.00079 461.547 6.00079C461.547 6.00079 461.547 6.00079 461.547 6.0008C461.547 6.0008 461.547 6.0008 461.547 6.0008C461.547 6.0008 461.547 6.0008 461.547 6.0008C461.547 6.00081 461.547 6.00081 461.547 6.00081C461.547 6.00081 461.547 6.00081 461.547 6.00081C461.547 6.00082 461.547 6.00082 461.547 6.00082C461.547 6.00082 461.547 6.00082 461.547 6.00082C461.547 6.00083 461.547 6.00083 461.547 6.00083C461.547 6.00083 461.547 6.00083 461.547 6.00083C461.547 6.00083 461.547 6.00084 461.547 6.00084C461.547 6.00084 461.547 6.00084 461.547 6.00084C461.547 6.00084 461.547 6.00085 461.547 6.00085C461.547 6.00085 461.547 6.00085 461.547 6.00085C461.547 6.00085 461.547 6.00085 461.547 6.00086C461.547 6.00086 461.547 6.00086 461.547 6.00086C461.547 6.00086 461.547 6.00086 461.547 6.00087C461.547 6.00087 461.547 6.00087 461.547 6.00087C461.547 6.00087 461.547 6.00087 461.547 6.00087C461.547 6.00088 461.547 6.00088 461.547 6.00088C461.547 6.00088 461.547 6.00088 461.547 6.00088C461.547 6.00089 461.547 6.00089 461.547 6.00089C461.547 6.00089 461.547 6.00089 461.547 6.00089C461.547 6.00089 461.547 6.0009 461.547 6.0009C461.547 6.0009 461.547 6.0009 461.547 6.0009C461.547 6.0009 461.547 6.00091 461.547 6.00091C461.547 6.00091 461.547 6.00091 461.547 6.00091C461.547 6.00091 461.547 6.00092 461.547 6.00092C461.547 6.00092 461.547 6.00092 461.547 6.00092C461.547 6.00092 461.547 6.00092 461.547 6.00093C461.547 6.00093 461.547 6.00093 461.547 6.00093C461.547 6.00093 461.547 6.00093 461.547 6.00094C461.547 6.00094 461.547 6.00094 461.547 6.00094C461.547 6.00094 461.547 6.00094 461.547 6.00094C461.547 6.00095 461.547 6.00095 461.547 6.00095C461.547 6.00095 461.547 6.00095 461.547 6.00095C461.547 6.00096 461.547 6.00096 461.547 6.00096C461.547 6.00096 461.547 6.00096 461.547 6.00096C461.547 6.00096 461.547 6.00097 461.547 6.00097C461.547 6.00097 461.547 6.00097 461.547 6.00097C461.547 6.00097 461.547 6.00098 461.547 6.00098C461.547 6.00098 461.547 6.00098 461.547 6.00098C461.547 6.00098 461.547 6.00098 461.547 6.00099C461.547 6.00099 461.547 6.00099 461.547 6.00099C461.547 6.00099 461.547 6.00099 461.547 6.001C461.547 6.001 461.547 6.001 461.547 6.001C461.547 6.001 461.547 6.001 461.547 6.00101C461.547 6.00101 461.547 6.00101 461.547 6.00101C461.547 6.00101 461.547 6.00101 461.547 6.00101C461.547 6.00102 461.547 6.00102 461.547 6.00102C461.547 6.00102 461.547 6.00102 461.547 6.00102C461.547 6.00103 461.547 6.00103 461.547 6.00103C461.547 6.00103 461.547 6.00103 461.547 6.00103C461.547 6.00103 461.547 6.00104 461.547 6.00104C461.547 6.00104 461.547 6.00104 461.547 6.00104C461.547 6.00104 461.547 6.00105 461.547 6.00105C461.547 6.00105 461.547 6.00105 461.547 6.00105C461.547 6.00105 461.547 6.00105 461.547 6.00106C461.547 6.00106 461.547 6.00106 461.547 6.00106C461.547 6.00106 461.547 6.00106 461.547 6.00107C461.547 6.00107 461.547 6.00107 461.547 6.00107C461.547 6.00107 461.547 6.00107 461.547 6.00107C461.547 6.00108 461.547 6.00108 461.547 6.00108C461.547 6.00108 461.547 6.00108 461.547 6.00108C461.547 6.00109 461.547 6.00109 461.547 6.00109C461.547 6.00109 461.547 6.00109 461.547 6.00109C461.547 6.00109 461.547 6.0011 461.547 6.0011C461.547 6.0011 461.547 6.0011 461.547 6.0011C461.547 6.0011 461.547 6.00111 461.547 6.00111C461.547 6.00111 461.547 6.00111 461.547 6.00111C461.547 6.00111 461.547 6.00112 461.547 6.00112C461.547 6.00112 461.547 6.00112 461.547 6.00112C461.547 6.00112 461.547 6.00112 461.547 6.00113C461.547 6.00113 461.547 6.00113 461.547 6.00113C461.547 6.00113 461.547 6.00113 461.547 6.00114C461.547 6.00114 461.547 6.00114 461.547 6.00114C461.547 6.00114 461.547 6.00114 461.547 6.00114C461.547 6.00115 461.547 6.00115 461.547 6.00115C461.547 6.00115 461.547 6.00115 461.547 6.00115C461.547 6.00116 461.547 6.00116 461.547 6.00116C461.547 6.00116 461.547 6.00116 461.547 6.00116C461.547 6.00116 461.547 6.00117 461.547 6.00117C461.547 6.00117 461.547 6.00117 461.547 6.00117C461.547 6.00117 461.547 6.00118 461.547 6.00118C461.547 6.00118 461.547 6.00118 461.547 6.00118C461.547 6.00118 461.547 6.00118 461.547 6.00119C461.547 6.00119 461.547 6.00119 461.547 6.00119C461.547 6.00119 461.547 6.00119 461.547 6.0012C461.547 6.0012 461.547 6.0012 461.547 6.0012C461.547 6.0012 461.547 6.0012 461.547 6.00121C461.547 6.00121 461.547 6.00121 461.547 6.00121C461.547 6.00121 461.547 6.00121 461.547 6.00121C461.547 6.00122 461.547 6.00122 461.547 6.00122C461.547 6.00122 461.547 6.00122 461.547 6.00122C461.547 6.00123 461.547 6.00123 461.547 6.00123C461.547 6.00123 461.547 6.00123 461.547 6.00123C461.547 6.00123 461.547 6.00124 461.547 6.00124C461.547 6.00124 461.547 6.00124 461.547 6.00124C461.547 6.00124 461.547 6.00125 461.547 6.00125C461.547 6.00125 461.547 6.00125 461.547 6.00125C461.547 6.00125 461.547 6.00125 461.547 6.00126C461.547 6.00126 461.547 6.00126 461.547 6.00126C461.547 6.00126 461.547 6.00126 461.547 6.00127C461.547 6.00127 461.547 6.00127 461.547 6.00127C461.547 6.00127 461.547 6.00127 461.547 6.00127C461.547 6.00128 461.547 6.00128 461.547 6.00128C461.547 6.00128 461.547 6.00128 461.547 6.00128C461.547 6.00129 461.547 6.00129 461.547 6.00129C461.547 6.00129 461.547 6.00129 461.547 6.00129C461.547 6.0013 461.547 6.0013 461.547 6.0013C461.547 6.0013 461.547 6.0013 461.547 6.0013C461.547 6.0013 461.547 6.00131 461.547 6.00131C461.547 6.00131 461.547 6.00131 461.547 6.00131C461.547 6.00131 461.547 6.00132 461.547 6.00132C461.547 6.00132 461.547 6.00132 461.547 6.00132C461.547 6.00132 461.547 6.00132 461.547 6.00133C461.547 6.00133 461.547 6.00133 461.547 6.00133C461.547 6.00133 461.547 6.00133 461.547 6.00134C461.547 6.00134 461.547 6.00134 461.547 6.00134C461.547 6.00134 461.547 6.00134 461.547 6.00134C461.547 6.00135 461.547 6.00135 461.547 6.00135C461.547 6.00135 461.547 6.00135 461.547 6.00135C461.547 6.00136 461.547 6.00136 461.547 6.00136C461.547 6.00136 461.547 6.00136 461.547 6.00136C461.547 6.00136 461.547 6.00137 461.547 6.00137C461.547 6.00137 461.547 6.00137 461.547 6.00137C461.547 6.00137 461.547 6.00138 461.547 6.00138C461.547 6.00138 461.547 6.00138 461.547 6.00138C461.547 6.00138 461.547 6.00139 461.547 6.00139C461.547 6.00139 461.547 6.00139 461.547 6.00139C461.547 6.00139 461.547 6.00139 461.547 6.0014C461.547 6.0014 461.547 6.0014 461.547 6.0014C461.547 6.0014 461.547 6.0014 461.547 6.00141C461.547 6.00141 461.547 6.00141 461.547 6.00141C461.547 6.00141 461.547 6.00141 461.547 6.00141C461.547 6.00142 461.547 6.00142 461.547 6.00142C461.547 6.00142 461.547 6.00142 461.547 6.00142C461.547 6.00143 461.547 6.00143 461.547 6.00143C461.547 6.00143 461.547 6.00143 461.547 6.00143C461.547 6.00143 461.547 6.00144 461.547 6.00144C461.547 6.00144 461.547 6.00144 461.547 6.00144C461.547 6.00144 461.547 6.00145 461.547 6.00145C461.547 6.00145 461.547 6.00145 461.547 6.00145C461.547 6.00145 461.547 6.00145 461.547 6.00146C461.547 6.00146 461.547 6.00146 461.547 6.00146C461.547 6.00146 461.547 6.00146 461.547 6.00147C461.547 6.00147 461.547 6.00147 461.547 6.00147C461.547 6.00147 461.547 6.00147 461.547 6.00147C461.547 6.00148 461.547 6.00148 461.547 6.00148C461.547 6.00148 461.547 6.00148 461.547 6.00148C461.547 6.00149 461.547 6.00149 461.547 6.00149C461.547 6.00149 461.547 6.00149 461.547 6.00149C461.547 6.0015 461.547 6.0015 461.547 6.0015C461.547 6.0015 461.547 6.0015 461.547 6.0015C461.547 6.0015 461.547 6.00151 461.547 6.00151C461.547 6.00151 461.547 6.00151 461.547 6.00151C461.547 6.00151 461.547 6.00152 461.547 6.00152C461.547 6.00152 461.547 6.00152 461.547 6.00152C461.547 6.00152 461.547 6.00152 461.547 6.00153C461.547 6.00153 461.547 6.00153 461.547 6.00153C461.547 6.00153 461.547 6.00153 461.547 6.00154C461.547 6.00154 461.547 6.00154 461.547 6.00154C461.547 6.00154 461.547 6.00154 461.547 6.00154C461.547 6.00155 461.547 6.00155 461.547 6.00155C461.547 6.00155 461.547 6.00155 461.547 6.00155C461.547 6.00156 461.547 6.00156 461.547 6.00156C461.547 6.00156 461.547 6.00156 461.547 6.00156C461.547 6.00156 461.547 6.00157 461.547 6.00157C461.547 6.00157 461.547 6.00157 461.547 6.00157C461.547 6.00157 461.547 6.00158 461.547 6.00158C461.547 6.00158 461.547 6.00158 461.547 6.00158C461.547 6.00158 461.547 6.00159 461.547 6.00159C461.547 6.00159 461.547 6.00159 461.547 6.00159C461.547 6.00159 461.547 6.00159 461.547 6.0016C461.547 6.0016 461.547 6.0016 461.547 6.0016C461.547 6.0016 461.547 6.0016 461.547 6.00161C461.547 6.00161 461.547 6.00161 461.547 6.00161C461.547 6.00161 461.547 6.00161 461.547 6.00161C461.547 6.00162 461.547 6.00162 461.547 6.00162C461.547 6.00162 461.547 6.00162 461.547 6.00162C461.547 6.00163 461.547 6.00163 461.547 6.00163C461.547 6.00163 461.547 6.00163 461.547 6.00163C461.547 6.00163 461.547 6.00164 461.547 6.00164C461.547 6.00164 461.547 6.00164 461.547 6.00164C461.547 6.00164 461.547 6.00165 461.547 6.00165C461.547 6.00165 461.547 6.00165 461.547 6.00165C461.547 6.00165 461.547 6.00165 461.547 6.00166C461.547 6.00166 461.547 6.00166 461.547 6.00166C461.547 6.00166 461.547 6.00166 461.547 6.00167C461.547 6.00167 461.547 6.00167 461.547 6.00167C461.547 6.00167 461.547 6.00167 461.547 6.00168C461.547 6.00168 461.547 6.00168 461.547 6.00168C461.547 6.00168 461.547 6.00168 461.547 6.00168C461.547 6.00169 461.547 6.00169 461.547 6.00169C461.547 6.00169 461.547 6.00169 461.547 6.00169C461.547 6.0017 461.547 6.0017 461.547 6.0017C461.547 6.0017 461.547 6.0017 461.547 6.0017C461.547 6.0017 461.547 6.00171 461.547 6.00171C461.547 6.00171 461.547 6.00171 461.547 6.00171C461.547 6.00171 461.547 6.00172 461.547 6.00172C461.547 6.00172 461.547 6.00172 461.547 6.00172C461.547 6.00172 461.547 6.00172 461.547 6.00173C461.547 6.00173 461.547 6.00173 461.547 6.00173C461.547 6.00173 461.547 6.00173 461.547 6.00174C461.547 6.00174 461.547 6.00174 461.547 6.00174C461.547 6.00174 461.547 6.00174 461.547 6.00174C461.547 6.00175 461.547 6.00175 461.547 6.00175C461.547 6.00175 461.547 6.00175 461.547 6.00175C461.547 6.00176 461.547 6.00176 461.547 6.00176C461.547 6.00176 461.547 6.00176 461.547 6.00176C461.547 6.00176 461.547 6.00177 461.547 6.00177C461.547 6.00177 461.547 6.00177 461.547 6.00177C461.547 6.00177 461.547 6.00178 461.547 6.00178C461.547 6.00178 461.547 6.00178 461.547 6.00178C461.547 6.00178 461.547 6.00179 461.547 6.00179C461.547 6.00179 461.547 6.00179 461.547 6.00179C461.547 6.00179 461.547 6.00179 461.547 6.0018C461.547 6.0018 461.547 6.0018 461.547 6.0018C461.547 6.0018 461.547 6.0018 461.547 6.00181C461.547 6.00181 461.547 6.00181 461.547 6.00181C461.547 6.00181 461.547 6.00181 461.547 6.00181C461.547 6.00182 461.547 6.00182 461.547 6.00182C461.547 6.00182 461.547 6.00182 461.547 6.00182C461.547 6.00183 461.547 6.00183 461.547 6.00183C461.547 6.00183 461.547 6.00183 461.547 6.00183C461.547 6.00183 461.547 6.00184 461.547 6.00184C461.547 6.00184 461.547 6.00184 461.547 6.00184C461.547 6.00184 461.547 6.00185 461.547 6.00185C461.547 6.00185 461.547 6.00185 461.547 6.00185C461.547 6.00185 461.547 6.00185 461.547 6.00186C461.547 6.00186 461.547 6.00186 461.547 6.00186C461.547 6.00186 461.547 6.00186 461.547 6.00187C461.547 6.00187 461.547 6.00187 461.547 6.00187C461.547 6.00187 461.547 6.00187 461.547 6.00188C461.547 6.00188 461.547 6.00188 461.547 6.00188C461.547 6.00188 461.547 6.00188 461.547 6.00188C461.547 6.00189 461.547 6.00189 461.547 6.00189C461.547 6.00189 461.547 6.00189 461.547 6.00189C461.547 6.0019 461.547 6.0019 461.547 6.0019C461.547 6.0019 461.547 6.0019 461.547 6.0019C461.547 6.0019 461.547 6.00191 461.547 6.00191C461.547 6.00191 461.547 6.00191 461.547 6.00191C461.547 6.00191 461.547 6.00192 461.547 6.00192C461.547 6.00192 461.547 6.00192 461.547 6.00192C461.547 6.00192 461.547 6.00192 461.547 6.00193C461.547 6.00193 461.547 6.00193 461.547 6.00193C461.547 6.00193 461.547 6.00193 461.547 6.00194C461.547 6.00194 461.547 6.00194 461.547 6.00194C461.547 6.00194 461.547 6.00194 461.547 6.00194C461.547 6.00195 461.547 6.00195 461.547 6.00195C461.547 6.00195 461.547 6.00195 461.547 6.00195C461.547 6.00196 461.547 6.00196 461.547 6.00196C461.547 6.00196 461.547 6.00196 461.547 6.00196C461.547 6.00197 461.547 6.00197 461.547 6.00197C461.547 6.00197 461.547 6.00197 461.547 6.00197C461.547 6.00197 461.547 6.00198 461.547 6.00198C461.547 6.00198 461.547 6.00198 461.547 6.00198C461.547 6.00198 461.547 6.00199 461.547 6.00199C461.547 6.00199 461.547 6.00199 461.547 6.00199C461.547 6.00199 461.547 6.00199 461.547 6.002C461.547 6.002 461.547 6.002 461.547 6.002C461.547 6.002 461.547 6.002 461.547 6.00201C461.547 6.00201 461.547 6.00201 461.547 6.00201C461.547 6.00201 461.547 6.00201 461.547 6.00201C461.547 6.00202 461.547 6.00202 461.547 6.00202C461.547 6.00202 461.547 6.00202 461.547 6.00202C461.547 6.00203 461.547 6.00203 461.547 6.00203C461.547 6.00203 461.547 6.00203 461.547 6.00203C461.547 6.00203 461.547 6.00204 461.547 6.00204C461.547 6.00204 461.547 6.00204 461.547 6.00204C461.547 6.00204 461.547 6.00205 461.547 6.00205C461.547 6.00205 461.547 6.00205 461.547 6.00205C461.547 6.00205 461.547 6.00206 461.547 6.00206C461.547 6.00206 461.547 6.00206 461.547 6.00206C461.547 6.00206 461.547 6.00206 461.547 6.00207C461.547 6.00207 461.547 6.00207 461.547 6.00207C461.547 6.00207 461.547 6.00207 461.547 6.00208C461.547 6.00208 461.547 6.00208 461.547 6.00208C461.547 6.00208 461.547 6.00208 461.547 6.00208C461.547 6.00209 461.547 6.00209 461.547 6.00209C461.547 6.00209 461.547 6.00209 461.547 6.00209C461.547 6.0021 461.547 6.0021 461.547 6.0021C461.547 6.0021 461.547 6.0021 461.547 6.0021C461.547 6.0021 461.547 6.00211 461.547 6.00211C461.547 6.00211 461.547 6.00211 461.547 6.00211C461.547 6.00211 461.547 6.00212 461.547 6.00212C461.547 6.00212 461.547 6.00212 461.547 6.00212C461.547 6.00212 461.547 6.00212 461.547 6.00213C461.547 6.00213 461.547 6.00213 461.547 6.00213C461.547 6.00213 461.547 6.00213 461.547 6.00214C461.547 6.00214 461.547 6.00214 461.547 6.00214C461.547 6.00214 461.547 6.00214 461.547 6.00214C461.547 6.00215 461.547 6.00215 461.547 6.00215C461.547 6.00215 461.547 6.00215 461.547 6.00215C461.547 6.00216 461.547 6.00216 461.547 6.00216C461.547 6.00216 461.547 6.00216 461.547 6.00216C461.547 6.00217 461.547 6.00217 461.547 6.00217C461.547 6.00217 461.547 6.00217 461.547 6.00217C461.547 6.00217 461.547 6.00218 461.547 6.00218C461.547 6.00218 461.547 6.00218 461.547 6.00218C461.547 6.00218 461.547 6.00219 461.547 6.00219C461.547 6.00219 461.547 6.00219 461.547 6.00219C461.547 6.00219 461.547 6.00219 461.547 6.0022C461.547 6.0022 461.547 6.0022 461.547 6.0022C461.547 6.0022 461.547 6.0022 461.547 6.00221C461.547 6.00221 461.547 6.00221 461.547 6.00221C461.547 6.00221 461.547 6.00221 461.547 6.00221C461.547 6.00222 461.547 6.00222 461.547 6.00222C461.547 6.00222 461.547 6.00222 461.547 6.00222C461.547 6.00223 461.547 6.00223 461.547 6.00223C461.547 6.00223 461.547 6.00223 461.547 6.00223C461.547 6.00223 461.547 6.00224 461.547 6.00224C461.547 6.00224 461.547 6.00224 461.547 6.00224C461.547 6.00224 461.547 6.00225 461.547 6.00225C461.547 6.00225 461.547 6.00225 461.547 6.00225C461.547 6.00225 461.547 6.00226 461.547 6.00226C461.547 6.00226 461.547 6.00226 461.547 6.00226C461.547 6.00226 461.547 6.00226 461.547 6.00227C461.547 6.00227 461.547 6.00227 461.547 6.00227C461.547 6.00227 461.547 6.00227 461.547 6.00228C461.547 6.00228 461.547 6.00228 461.547 6.00228C461.547 6.00228 461.547 6.00228 461.547 6.00228C461.547 6.00229 461.547 6.00229 461.547 6.00229C461.547 6.00229 461.547 6.00229 461.547 6.00229C461.547 6.0023 461.547 6.0023 461.547 6.0023C461.547 6.0023 461.547 6.0023 461.547 6.0023C461.547 6.0023 461.547 6.00231 461.547 6.00231C461.547 6.00231 461.547 6.00231 461.547 6.00231C461.547 6.00231 461.547 6.00232 461.547 6.00232C461.547 6.00232 461.547 6.00232 461.547 6.00232C461.547 6.00232 461.547 6.00232 461.547 6.00233C461.547 6.00233 461.547 6.00233 461.547 6.00233C461.547 6.00233 461.547 6.00233 461.547 6.00234C461.547 6.00234 461.547 6.00234 461.547 6.00234C461.547 6.00234 461.547 6.00234 461.547 6.00235C461.547 6.00235 461.547 6.00235 461.547 6.00235C461.547 6.00235 461.547 6.00235 461.547 6.00235C461.547 6.00236 461.547 6.00236 461.547 6.00236C461.547 6.00236 461.547 6.00236 461.547 6.00236C461.547 6.00237 461.547 6.00237 461.547 6.00237C461.547 6.00237 461.547 6.00237 461.547 6.00237C461.547 6.00237 461.547 6.00238 461.547 6.00238C461.547 6.00238 461.547 6.00238 461.547 6.00238H462.547Z" fill="#D9DBE6"/>
</g>
<path d="M466 720.166L26 720.166C15.2305 720.166 6.50003 711.436 6.50003 700.666L6.50003 697.166L485.5 697.166L485.5 700.666C485.5 711.436 476.77 720.166 466 720.166Z" fill="#EBEEFF" stroke="#D9DBE6"/>
<defs>
<filter id="filter0_d_363_4271" x="0.5" y="0.5" width="501" height="735.664" filterUnits="userSpaceOnUse" color-interpolation-filters="sRGB">
<feFlood flood-opacity="0" result="BackgroundImageFix"/>
<feColorMatrix in="SourceAlpha" type="matrix" values="0 0 0 0 0 0 0 0 0 0 0 0 0 0 0 0 0 0 127 0" result="hardAlpha"/>
<feOffset dx="5" dy="5"/>
<feGaussianBlur stdDeviation="5"/>
<feComposite in2="hardAlpha" operator="out"/>
<feColorMatrix type="matrix" values="0 0 0 0 0.65098 0 0 0 0 0.666667 0 0 0 0 0.752941 0 0 0 0.09 0"/>
<feBlend mode="normal" in2="BackgroundImageFix" result="effect1_dropShadow_363_4271"/>
<feBlend mode="normal" in="SourceGraphic" in2="effect1_dropShadow_363_4271" result="shape"/>
</filter>
</defs>
</svg>
