<svg width="330" height="436" viewBox="0 0 330 436" fill="none" xmlns="http://www.w3.org/2000/svg">
<g clip-path="url(#clip0_2098_57483)">
<path d="M222.115 0H107.885C48.3018 0 0 48.3018 0 107.885V327.461C0 387.044 48.3018 435.346 107.885 435.346H222.115C281.698 435.346 330 387.044 330 327.461V107.885C330 48.3018 281.698 0 222.115 0Z" fill="url(#paint0_linear_2098_57483)"/>
<path d="M211.959 12.6875H118.037C58.4541 12.6875 10.1523 60.9893 10.1523 120.573V314.764C10.1523 374.348 58.4541 422.65 118.037 422.65H211.959C271.543 422.65 319.844 374.348 319.844 314.764V120.573C319.844 60.9893 271.543 12.6875 211.959 12.6875Z" fill="url(#paint1_linear_2098_57483)"/>
<g filter="url(#filter0_iii_2098_57483)">
<path d="M200.542 35.5391H129.464C73.3859 35.5391 27.9258 80.9992 27.9258 137.077V298.27C27.9258 354.348 73.3859 399.808 129.464 399.808H200.542C256.62 399.808 302.08 354.348 302.08 298.27V137.077C302.08 80.9992 256.62 35.5391 200.542 35.5391Z" fill="#7D82FF" fill-opacity="0.1"/>
</g>
<path d="M192.921 50.7656H135.806C83.2323 50.7656 40.6133 93.3847 40.6133 145.958V289.381C40.6133 341.955 83.2323 384.574 135.806 384.574H192.921C245.494 384.574 288.113 341.955 288.113 289.381V145.958C288.113 93.3847 245.494 50.7656 192.921 50.7656Z" fill="#BCBFFF"/>
<path d="M192.921 50.7656H135.806C83.2323 50.7656 40.6133 93.3847 40.6133 145.958V289.381C40.6133 341.955 83.2323 384.574 135.806 384.574H192.921C245.494 384.574 288.113 341.955 288.113 289.381V145.958C288.113 93.3847 245.494 50.7656 192.921 50.7656Z" fill="url(#paint2_linear_2098_57483)"/>
<mask id="mask0_2098_57483" style="mask-type:alpha" maskUnits="userSpaceOnUse" x="40" y="50" width="249" height="335">
<path d="M192.925 50.7656H135.809C83.2362 50.7656 40.6172 93.3847 40.6172 145.958V289.381C40.6172 341.955 83.2362 384.574 135.809 384.574H192.925C245.498 384.574 288.117 341.955 288.117 289.381V145.958C288.117 93.3847 245.498 50.7656 192.925 50.7656Z" fill="white"/>
</mask>
<g mask="url(#mask0_2098_57483)">
<g filter="url(#filter1_f_2098_57483)">
<path d="M165.004 324.921C211.269 324.921 248.773 287.416 248.773 241.152C248.773 194.888 211.269 157.383 165.004 157.383C118.74 157.383 81.2349 194.888 81.2349 241.152C81.2349 287.416 118.74 324.921 165.004 324.921Z" fill="#FFF5D1"/>
</g>
<g filter="url(#filter2_f_2098_57483)">
<path d="M164.998 289.177C191.515 289.177 213.012 267.68 213.012 241.163C213.012 214.646 191.515 193.149 164.998 193.149C138.481 193.149 116.984 214.646 116.984 241.163C116.984 267.68 138.481 289.177 164.998 289.177Z" fill="#FFF5D1"/>
</g>
<g filter="url(#filter3_f_2098_57483)">
<path d="M165.008 284.054C188.704 284.054 207.914 264.844 207.914 241.148C207.914 217.451 188.704 198.242 165.008 198.242C141.312 198.242 122.102 217.451 122.102 241.148C122.102 264.844 141.312 284.054 165.008 284.054Z" fill="#FFEDAA"/>
</g>
<path fill-rule="evenodd" clip-rule="evenodd" d="M142.156 404.876H-8.89011H-29.1971H-286.852V260.819L-286.841 260.816C-286.848 260.608 -286.852 260.398 -286.852 260.188C-286.852 249.673 -278.328 241.15 -267.813 241.15C-263.773 241.15 -260.027 242.408 -256.945 244.554C-255.21 239.612 -250.502 236.069 -244.967 236.069C-238.309 236.069 -232.848 241.195 -232.317 247.717C-231.361 247.889 -230.44 248.159 -229.562 248.515C-228.533 242.179 -223.036 237.341 -216.408 237.341C-213.322 237.341 -210.48 238.39 -208.221 240.152C-206.507 236.968 -203.143 234.805 -199.274 234.805C-197.87 234.805 -196.532 235.09 -195.315 235.606C-194.153 226.56 -186.424 219.57 -177.062 219.57C-168.43 219.57 -161.185 225.514 -159.198 233.533C-152.394 233.58 -146.801 238.726 -146.051 245.34C-143.768 243.509 -140.871 242.414 -137.717 242.414C-135.317 242.414 -133.065 243.048 -131.12 244.158C-128.955 237.971 -123.066 233.532 -116.14 233.532C-108.076 233.532 -101.417 239.548 -100.407 247.337C-98.8175 246.621 -97.0539 246.222 -95.1973 246.222C-89.9152 246.222 -85.3867 249.449 -83.4753 254.039C-79.7646 250.015 -74.4482 247.494 -68.5431 247.494C-57.801 247.494 -49.0069 255.835 -48.2835 266.394C-45.9903 264.123 -42.8355 262.72 -39.3533 262.72C-37.1714 262.72 -35.1181 263.271 -33.3248 264.241C-32.4419 262.095 -30.9882 260.245 -29.1528 258.879C-28.4804 248.975 -20.2334 241.15 -10.1586 241.15C-6.11863 241.15 -2.37256 242.408 0.709045 244.554C2.44467 239.612 7.1523 236.069 12.6875 236.069C19.3457 236.069 24.8064 241.195 25.3375 247.717C26.2931 247.889 27.2149 248.159 28.0922 248.515C29.1213 242.179 34.6188 237.341 41.2462 237.341C44.3329 237.341 47.1745 238.39 49.4337 240.152C51.1477 236.968 54.5112 234.805 58.3801 234.805C59.7847 234.805 61.1227 235.09 62.3394 235.606C63.5016 226.56 71.2305 219.57 80.5921 219.57C89.2249 219.57 96.4694 225.514 98.4564 233.533C105.261 233.58 110.853 238.726 111.604 245.34C113.886 243.509 116.784 242.414 119.938 242.414C122.338 242.414 124.59 243.048 126.535 244.158C128.699 237.971 134.589 233.532 141.515 233.532C149.579 233.532 156.238 239.548 157.248 247.337C158.837 246.621 160.601 246.222 162.457 246.222C167.74 246.222 172.268 249.449 174.179 254.039C177.89 250.015 183.206 247.494 189.112 247.494C195.121 247.494 200.521 250.105 204.239 254.253C206.525 252.409 209.433 251.305 212.599 251.305C215.686 251.305 218.528 252.355 220.787 254.116C222.501 250.933 225.864 248.769 229.733 248.769C231.138 248.769 232.476 249.054 233.692 249.57C234.854 240.524 242.584 233.535 251.945 233.535C260.578 233.535 267.822 239.478 269.809 247.497C276.614 247.544 282.206 252.69 282.957 259.304C285.239 257.473 288.137 256.378 291.291 256.378C293.691 256.378 295.943 257.012 297.888 258.123C300.052 251.935 305.942 247.497 312.868 247.497C320.932 247.497 327.591 253.513 328.601 261.301C330.19 260.585 331.954 260.186 333.81 260.186C339.092 260.186 343.621 263.413 345.532 268.003C349.243 263.979 354.559 261.459 360.464 261.459C371.207 261.459 380.001 269.799 380.724 280.358C383.017 278.087 386.172 276.685 389.654 276.685C391.836 276.685 393.89 277.235 395.683 278.205C397.582 273.589 402.124 270.34 407.425 270.34C409.301 270.34 411.082 270.747 412.685 271.478C413.985 262.229 421.93 255.114 431.537 255.114C435.577 255.114 439.323 256.372 442.405 258.518C444.14 253.576 448.848 250.033 454.383 250.033C461.041 250.033 466.502 255.16 467.033 261.681C467.989 261.854 468.911 262.123 469.788 262.479C470.817 256.143 476.315 251.305 482.942 251.305C486.029 251.305 488.87 252.355 491.129 254.116C492.843 250.933 496.207 248.769 500.076 248.769C501.48 248.769 502.818 249.054 504.035 249.57C505.197 240.524 512.926 233.535 522.288 233.535C530.921 233.535 538.165 239.478 540.152 247.497C546.956 247.544 552.549 252.69 553.299 259.304C555.582 257.473 558.48 256.378 561.633 256.378C564.033 256.378 566.285 257.012 568.231 258.123C570.395 251.935 576.284 247.497 583.211 247.497C591.274 247.497 597.933 253.513 598.943 261.301C600.533 260.585 602.296 260.186 604.153 260.186C609.435 260.186 613.964 263.413 615.875 268.003C619.586 263.979 624.902 261.459 630.807 261.459C641.549 261.459 650.343 269.799 651.067 280.358C653.36 278.087 656.515 276.685 659.997 276.685C662.179 276.685 664.232 277.235 666.026 278.205C667.925 273.589 672.467 270.34 677.768 270.34C684.607 270.34 690.182 275.749 690.45 282.523L690.46 282.52V418.841H420.117H412.499H142.156V404.876Z" fill="white"/>
<path fill-rule="evenodd" clip-rule="evenodd" d="M-8.89011 404.876H248.765V268.556L248.754 268.558C248.487 261.785 242.911 256.376 236.072 256.376C230.771 256.376 226.229 259.625 224.33 264.241C222.537 263.271 220.483 262.72 218.301 262.72C214.819 262.72 211.664 264.123 209.371 266.394C208.648 255.835 199.854 247.494 189.112 247.494C183.206 247.494 177.89 250.015 174.179 254.039C172.268 249.449 167.74 246.222 162.457 246.222C160.601 246.222 158.837 246.621 157.248 247.337C156.238 239.548 149.579 233.532 141.515 233.532C134.589 233.532 128.699 237.971 126.535 244.158C124.59 243.048 122.338 242.414 119.938 242.414C116.784 242.414 113.886 243.509 111.604 245.34C110.853 238.726 105.261 233.58 98.4564 233.533C96.4694 225.514 89.2249 219.57 80.5921 219.57C71.2305 219.57 63.5016 226.56 62.3394 235.606C61.1227 235.09 59.7847 234.805 58.3801 234.805C54.5112 234.805 51.1477 236.968 49.4337 240.152C47.1745 238.39 44.3329 237.341 41.2462 237.341C34.6188 237.341 29.1213 242.179 28.0922 248.515C27.2149 248.159 26.2931 247.889 25.3375 247.717C24.8064 241.195 19.3457 236.069 12.6875 236.069C7.1523 236.069 2.44467 239.612 0.709045 244.554C-2.37256 242.408 -6.11863 241.15 -10.1586 241.15C-20.2334 241.15 -28.4804 248.975 -29.1528 258.879C-30.9882 260.245 -32.4419 262.095 -33.3248 264.241C-35.1181 263.271 -37.1714 262.72 -39.3533 262.72C-42.8355 262.72 -45.9903 264.123 -48.2835 266.394C-49.0069 255.835 -57.801 247.494 -68.5431 247.494C-74.4482 247.494 -79.7646 250.015 -83.4753 254.039C-85.3867 249.449 -89.9152 246.222 -95.1973 246.222C-97.0539 246.222 -98.8175 246.621 -100.407 247.337C-101.417 239.548 -108.076 233.532 -116.14 233.532C-123.066 233.532 -128.955 237.971 -131.12 244.158C-133.065 243.048 -135.317 242.414 -137.717 242.414C-140.871 242.414 -143.768 243.509 -146.051 245.34C-146.801 238.726 -152.394 233.58 -159.198 233.533C-161.185 225.514 -168.43 219.57 -177.062 219.57C-186.424 219.57 -194.153 226.56 -195.315 235.606C-196.532 235.09 -197.87 234.805 -199.274 234.805C-203.143 234.805 -206.507 236.968 -208.221 240.152C-210.48 238.39 -213.322 237.341 -216.408 237.341C-223.036 237.341 -228.533 242.179 -229.562 248.515C-230.44 248.159 -231.361 247.889 -232.317 247.717C-232.848 241.195 -238.309 236.069 -244.967 236.069C-250.502 236.069 -255.21 239.612 -256.945 244.554C-260.027 242.408 -263.773 241.15 -267.813 241.15C-278.328 241.15 -286.852 249.673 -286.852 260.188C-286.852 260.398 -286.848 260.608 -286.841 260.816L-286.852 260.819V404.876H-29.1971H-8.89011Z" fill="url(#paint3_linear_2098_57483)"/>
<path fill-rule="evenodd" clip-rule="evenodd" d="M420.122 418.837H412.503H142.16V274.78L142.17 274.777C142.164 274.568 142.16 274.359 142.16 274.149C142.16 263.634 150.684 255.11 161.199 255.11C165.239 255.11 168.985 256.369 172.066 258.515C173.802 253.573 178.509 250.03 184.045 250.03C190.703 250.03 196.164 255.156 196.695 261.678C197.65 261.85 198.572 262.12 199.449 262.476C200.479 256.139 205.976 251.302 212.603 251.302C215.69 251.302 218.532 252.351 220.791 254.113C222.505 250.929 225.868 248.766 229.737 248.766C231.142 248.766 232.48 249.051 233.696 249.566C234.859 240.521 242.588 233.531 251.949 233.531C260.582 233.531 267.827 239.475 269.814 247.494C276.618 247.541 282.21 252.687 282.961 259.301C285.243 257.47 288.141 256.374 291.295 256.374C293.695 256.374 295.947 257.009 297.892 258.119C300.056 251.932 305.946 247.493 312.872 247.493C320.936 247.493 327.595 253.509 328.605 261.298C330.194 260.582 331.958 260.183 333.815 260.183C339.097 260.183 343.625 263.41 345.536 267.999C349.247 263.976 354.564 261.455 360.469 261.455C371.211 261.455 380.005 269.796 380.728 280.355C383.022 278.084 386.176 276.681 389.659 276.681C391.84 276.681 393.894 277.232 395.687 278.202C397.587 273.586 402.128 270.336 407.429 270.336C409.305 270.336 411.087 270.744 412.689 271.474C413.989 262.226 421.934 255.11 431.541 255.11C435.581 255.11 439.327 256.369 442.409 258.515C444.144 253.573 448.852 250.03 454.387 250.03C461.046 250.03 466.506 255.156 467.037 261.678C467.993 261.85 468.915 262.12 469.792 262.476C470.821 256.139 476.319 251.302 482.946 251.302C486.033 251.302 488.874 252.351 491.134 254.113C492.848 250.929 496.211 248.766 500.08 248.766C501.485 248.766 502.822 249.051 504.039 249.566C505.201 240.521 512.93 233.531 522.292 233.531C530.925 233.531 538.169 239.475 540.156 247.494C546.96 247.541 552.553 252.687 553.304 259.301C555.586 257.47 558.484 256.374 561.637 256.374C564.038 256.374 566.29 257.009 568.235 258.119C570.399 251.932 576.288 247.493 583.215 247.493C591.279 247.493 597.937 253.509 598.947 261.298C600.537 260.582 602.301 260.183 604.157 260.183C609.439 260.183 613.968 263.41 615.879 267.999C619.59 263.976 624.906 261.455 630.811 261.455C641.553 261.455 650.348 269.796 651.071 280.355C653.364 278.084 656.519 276.681 660.001 276.681C662.183 276.681 664.236 277.232 666.03 278.202C667.929 273.586 672.471 270.336 677.772 270.336C684.611 270.336 690.187 275.746 690.454 282.519L690.464 282.517V418.837H420.122Z" fill="url(#paint4_linear_2098_57483)"/>
<path fill-rule="evenodd" clip-rule="evenodd" d="M-11.4135 446.767H-20.2991H-289.375V302.709L-289.365 302.707C-289.372 302.498 -289.375 302.289 -289.375 302.079C-289.375 291.564 -280.851 283.04 -270.337 283.04C-266.297 283.04 -262.551 284.299 -259.469 286.445C-257.733 281.503 -253.026 277.959 -247.49 277.959C-240.832 277.959 -235.371 283.086 -234.84 289.607C-233.885 289.78 -232.963 290.05 -232.086 290.406C-231.057 284.069 -225.559 279.232 -218.932 279.232C-215.845 279.232 -213.003 280.281 -210.744 282.042C-209.03 278.859 -205.667 276.695 -201.798 276.695C-200.393 276.695 -199.055 276.981 -197.839 277.496C-196.676 268.451 -188.947 261.461 -179.586 261.461C-170.953 261.461 -163.709 267.405 -161.722 275.423C-154.917 275.47 -149.325 280.616 -148.574 287.231C-146.292 285.4 -143.394 284.304 -140.24 284.304C-137.84 284.304 -135.588 284.939 -133.643 286.049C-131.479 279.861 -125.589 275.423 -118.663 275.423C-110.599 275.423 -103.94 281.439 -102.93 289.228C-101.341 288.511 -99.5773 288.113 -97.7206 288.113C-92.4385 288.113 -87.91 291.339 -85.9987 295.929C-82.288 291.905 -76.9716 289.385 -71.0665 289.385C-60.3243 289.385 -51.5302 297.726 -50.8069 308.284C-48.5136 306.013 -45.3589 304.611 -41.8766 304.611C-39.6947 304.611 -37.6415 305.162 -35.8481 306.131C-33.9486 301.516 -29.4067 298.266 -24.1059 298.266C-22.6839 298.266 -21.3166 298.5 -20.0402 298.931C-18.5402 289.914 -10.7032 283.04 -1.26065 283.04C2.77932 283.04 6.52536 284.299 9.60696 286.445C11.3426 281.503 16.0502 277.959 21.5854 277.959C28.2436 277.959 33.7044 283.086 34.2354 289.607C35.191 289.78 36.1128 290.05 36.9902 290.406C38.0193 284.069 43.5168 279.232 50.1442 279.232C53.2309 279.232 56.0725 280.281 58.3317 282.042C60.0457 278.859 63.4091 276.695 67.278 276.695C68.6826 276.695 70.0206 276.981 71.2372 277.496C72.3994 268.451 80.1285 261.461 89.4901 261.461C98.1229 261.461 105.367 267.405 107.354 275.423C114.159 275.47 119.751 280.616 120.502 287.231C122.784 285.4 125.682 284.304 128.836 284.304C131.236 284.304 133.488 284.939 135.433 286.049C137.597 279.861 143.487 275.423 150.413 275.423C158.477 275.423 165.135 281.439 166.146 289.228C167.735 288.511 169.499 288.113 171.355 288.113C176.637 288.113 181.166 291.339 183.077 295.929C186.788 291.905 192.104 289.385 198.009 289.385C208.752 289.385 217.546 297.726 218.269 308.284C220.562 306.013 223.717 304.611 227.199 304.611C229.381 304.611 231.434 305.162 233.228 306.131C235.127 301.516 239.669 298.266 244.97 298.266C251.809 298.266 257.385 303.675 257.652 310.449L257.662 310.447V446.767H-11.4135Z" fill="url(#paint5_linear_2098_57483)"/>
<path fill-rule="evenodd" clip-rule="evenodd" d="M63.462 317.305C56.6229 317.305 51.0472 322.714 50.7797 329.488L50.7695 329.486V465.806H323.65H328.731H601.611V321.748L601.601 321.746C601.608 321.537 601.611 321.328 601.611 321.118C601.611 310.603 593.087 302.079 582.573 302.079C578.533 302.079 574.787 303.338 571.705 305.484C569.969 300.542 565.262 296.998 559.726 296.998C553.068 296.998 547.608 302.125 547.077 308.646C546.122 308.819 545.202 309.088 544.326 309.443C543.296 303.107 537.799 298.271 531.172 298.271C528.084 298.271 525.241 299.321 522.981 301.084C521.268 297.899 517.904 295.734 514.034 295.734C512.629 295.734 511.291 296.02 510.075 296.535C508.913 287.49 501.183 280.5 491.822 280.5C483.189 280.5 475.945 286.444 473.958 294.462C467.154 294.511 461.563 299.658 460.814 306.273C458.531 304.44 455.632 303.343 452.476 303.343C450.076 303.343 447.824 303.978 445.879 305.088C443.715 298.9 437.825 294.462 430.899 294.462C422.835 294.462 416.177 300.478 415.166 308.267C413.577 307.55 411.813 307.152 409.957 307.152C404.675 307.152 400.146 310.378 398.235 314.968C394.524 310.944 389.208 308.424 383.303 308.424C372.56 308.424 363.766 316.765 363.043 327.323C360.75 325.052 357.595 323.65 354.113 323.65C351.931 323.65 349.877 324.201 348.084 325.17C346.185 320.555 341.643 317.305 336.342 317.305C333.469 317.305 330.818 318.26 328.691 319.87C328.048 309.937 319.788 302.079 309.693 302.079C305.653 302.079 301.907 303.338 298.825 305.484C297.089 300.542 292.382 296.998 286.846 296.998C280.188 296.998 274.728 302.125 274.197 308.646C273.242 308.819 272.322 309.088 271.446 309.443C270.416 303.107 264.919 298.271 258.292 298.271C255.204 298.271 252.361 299.321 250.101 301.084C248.388 297.899 245.024 295.734 241.154 295.734C239.749 295.734 238.411 296.02 237.195 296.535C236.032 287.49 228.303 280.5 218.942 280.5C210.309 280.5 203.065 286.444 201.078 294.462C194.274 294.511 188.683 299.658 187.934 306.273C185.651 304.44 182.752 303.343 179.596 303.343C177.196 303.343 174.944 303.978 172.999 305.088C170.835 298.9 164.945 294.462 158.019 294.462C149.955 294.462 143.296 300.478 142.286 308.267C140.697 307.55 138.933 307.152 137.077 307.152C131.795 307.152 127.266 310.378 125.355 314.968C121.644 310.944 116.328 308.424 110.423 308.424C99.6804 308.424 90.8863 316.765 90.1629 327.323C87.8697 325.052 84.7149 323.65 81.2327 323.65C79.0508 323.65 76.9975 324.201 75.2041 325.17C73.3046 320.555 68.7628 317.305 63.462 317.305Z" fill="url(#paint6_linear_2098_57483)"/>
<path fill-rule="evenodd" clip-rule="evenodd" d="M22.8526 361.727C16.0135 361.727 10.4378 367.136 10.1704 373.91L10.1602 373.908V510.228H283.041H288.122H561.002V366.17L560.992 366.168C560.999 365.959 561.002 365.75 561.002 365.54C561.002 355.025 552.478 346.501 541.964 346.501C537.924 346.501 534.178 347.759 531.096 349.906C529.361 344.963 524.653 341.42 519.118 341.42C512.46 341.42 506.999 346.547 506.468 353.068C505.514 353.241 504.593 353.51 503.717 353.865C502.687 347.529 497.19 342.693 490.563 342.693C487.475 342.693 484.632 343.743 482.373 345.506C480.659 342.321 477.295 340.156 473.425 340.156C472.021 340.156 470.683 340.441 469.466 340.957C468.304 331.912 460.575 324.922 451.213 324.922C442.58 324.922 435.336 330.866 433.349 338.884C426.545 338.933 420.954 344.08 420.205 350.695C417.922 348.862 415.023 347.765 411.868 347.765C409.467 347.765 407.215 348.4 405.27 349.51C403.106 343.322 397.217 338.884 390.29 338.884C382.226 338.884 375.568 344.9 374.558 352.689C372.968 351.972 371.205 351.574 369.348 351.574C364.066 351.574 359.537 354.8 357.626 359.39C353.915 355.366 348.599 352.846 342.694 352.846C331.952 352.846 323.157 361.187 322.434 371.745C320.141 369.474 316.986 368.072 313.504 368.072C311.322 368.072 309.269 368.623 307.475 369.592C305.576 364.977 301.034 361.727 295.733 361.727C292.86 361.727 290.209 362.682 288.081 364.292C287.439 354.359 279.179 346.501 269.083 346.501C265.043 346.501 261.297 347.759 258.216 349.906C256.48 344.963 251.772 341.42 246.237 341.42C239.579 341.42 234.118 346.547 233.587 353.068C232.633 353.241 231.713 353.51 230.836 353.865C229.807 347.529 224.309 342.693 217.683 342.693C214.595 342.693 211.752 343.743 209.492 345.506C207.779 342.321 204.414 340.156 200.545 340.156C199.14 340.156 197.802 340.441 196.585 340.957C195.423 331.912 187.694 324.922 178.333 324.922C169.7 324.922 162.455 330.866 160.468 338.884C153.665 338.933 148.074 344.08 147.325 350.695C145.042 348.862 142.142 347.765 138.987 347.765C136.587 347.765 134.335 348.4 132.39 349.51C130.226 343.322 124.336 338.884 117.41 338.884C109.346 338.884 102.687 344.9 101.677 352.689C100.087 351.972 98.324 351.574 96.4673 351.574C91.1852 351.574 86.6567 354.8 84.7453 359.39C81.0347 355.366 75.7182 352.846 69.8132 352.846C59.071 352.846 50.2769 361.187 49.5536 371.745C47.2603 369.474 44.1056 368.072 40.6233 368.072C38.4414 368.072 36.3881 368.623 34.5948 369.592C32.6953 364.977 28.1534 361.727 22.8526 361.727Z" fill="url(#paint7_linear_2098_57483)"/>
<path d="M207.474 283.773C197.105 285.2 178.386 280.359 170.322 277.761C169.604 276.517 171.278 275.827 172.205 275.637L194.285 271.698C203.001 275.129 217.843 282.347 207.474 283.773Z" fill="url(#paint8_linear_2098_57483)"/>
<path d="M170.808 275.93C172.052 275.212 186.973 272.815 194.278 271.706L197.298 275.144L170.315 277.769C169.961 277.455 169.564 276.648 170.808 275.93Z" fill="url(#paint9_linear_2098_57483)"/>
<path d="M249.329 322.378C232.492 324.861 202.174 317.015 189.12 312.782C187.969 310.723 190.692 309.558 192.198 309.232L228.061 302.448C242.165 308.057 266.166 319.895 249.329 322.378Z" fill="url(#paint10_linear_2098_57483)"/>
<path d="M189.498 308.934C191.497 307.807 215.528 304.144 227.294 302.452L232.193 307.924L188.72 311.842C188.147 311.342 187.5 310.06 189.498 308.934Z" fill="url(#paint11_linear_2098_57483)"/>
<path d="M136.689 169.08L128.673 168.853C128.017 168.835 127.574 169.516 127.856 170.108L161.333 240.296C161.797 241.27 162.437 242.15 163.221 242.891L291.109 363.914L293.841 267.445C268.736 260.297 216.437 245.417 208.078 243.073C199.718 240.73 192.791 235.326 190.373 232.917L144.757 173.212C142.829 170.689 139.864 169.17 136.689 169.08Z" fill="url(#paint12_linear_2098_57483)"/>
<g filter="url(#filter4_f_2098_57483)">
<path d="M172.617 236.078L290.656 322.386" stroke="white" stroke-opacity="0.4" stroke-width="8.88461"/>
</g>
<g style="mix-blend-mode:multiply">
<path d="M176.422 233.539L293.191 308.424" stroke="#D9DBE6" stroke-width="0.634615"/>
</g>
<g style="mix-blend-mode:multiply">
<path d="M167.543 236.078L291.928 338.886" stroke="#D9DBE6" stroke-width="0.634615"/>
</g>
<path d="M138.98 173.248L142.788 171.344C144.692 173.459 148.754 178.071 149.769 179.594C150.784 181.117 175.577 213.651 187.846 229.728C188.63 230.709 190.904 233.361 192.042 234.552C192.88 235.15 192.838 235.355 192.288 234.805C192.214 234.731 192.131 234.646 192.042 234.552C190.945 233.77 188.343 232.315 183.404 230.998C173.884 228.459 150.827 189.113 138.98 173.248Z" fill="url(#paint13_linear_2098_57483)"/>
<path fill-rule="evenodd" clip-rule="evenodd" d="M139.322 173.171L177.264 232.788C177.575 233.276 177.336 233.927 176.783 234.097L160.616 239.078L127.679 170.085C127.396 169.492 127.84 168.811 128.495 168.83L136.707 169.062L136.716 169.076C139.97 169.287 142.1 170.716 142.78 171.434L139.322 173.171Z" fill="url(#paint14_linear_2098_57483)"/>
<g style="mix-blend-mode:multiply">
<path d="M136.689 169.08L128.673 168.853C128.017 168.835 127.574 169.516 127.856 170.108L161.333 240.296C161.797 241.27 162.437 242.15 163.221 242.891L291.109 363.914L293.841 267.445C268.736 260.297 216.437 245.417 208.078 243.073C199.718 240.73 192.791 235.326 190.373 232.917L144.757 173.212C142.829 170.689 139.864 169.17 136.689 169.08Z" fill="url(#paint15_linear_2098_57483)"/>
</g>
<g filter="url(#filter5_f_2098_57483)">
<path d="M165 238.609L273.519 339.513" stroke="white" stroke-opacity="0.8" stroke-width="1.26923"/>
</g>
</g>
</g>
<defs>
<filter id="filter0_iii_2098_57483" x="27.9258" y="35.5391" width="274.154" height="370.933" filterUnits="userSpaceOnUse" color-interpolation-filters="sRGB">
<feFlood flood-opacity="0" result="BackgroundImageFix"/>
<feBlend mode="normal" in="SourceGraphic" in2="BackgroundImageFix" result="shape"/>
<feColorMatrix in="SourceAlpha" type="matrix" values="0 0 0 0 0 0 0 0 0 0 0 0 0 0 0 0 0 0 127 0" result="hardAlpha"/>
<feOffset dy="1.66269"/>
<feGaussianBlur stdDeviation="0.831346"/>
<feComposite in2="hardAlpha" operator="arithmetic" k2="-1" k3="1"/>
<feColorMatrix type="matrix" values="0 0 0 0 0.65098 0 0 0 0 0.666667 0 0 0 0 0.752941 0 0 0 1 0"/>
<feBlend mode="normal" in2="shape" result="effect1_innerShadow_2098_57483"/>
<feColorMatrix in="SourceAlpha" type="matrix" values="0 0 0 0 0 0 0 0 0 0 0 0 0 0 0 0 0 0 127 0" result="hardAlpha"/>
<feOffset dy="6.66346"/>
<feGaussianBlur stdDeviation="3.33173"/>
<feComposite in2="hardAlpha" operator="arithmetic" k2="-1" k3="1"/>
<feColorMatrix type="matrix" values="0 0 0 0 0.917647 0 0 0 0 0.921569 0 0 0 0 0.952941 0 0 0 1 0"/>
<feBlend mode="normal" in2="effect1_innerShadow_2098_57483" result="effect2_innerShadow_2098_57483"/>
<feColorMatrix in="SourceAlpha" type="matrix" values="0 0 0 0 0 0 0 0 0 0 0 0 0 0 0 0 0 0 127 0" result="hardAlpha"/>
<feOffset dy="6.66346"/>
<feGaussianBlur stdDeviation="30.0046"/>
<feComposite in2="hardAlpha" operator="arithmetic" k2="-1" k3="1"/>
<feColorMatrix type="matrix" values="0 0 0 0 0.65098 0 0 0 0 0.666667 0 0 0 0 0.752941 0 0 0 1 0"/>
<feBlend mode="normal" in2="effect2_innerShadow_2098_57483" result="effect3_innerShadow_2098_57483"/>
</filter>
<filter id="filter1_f_2098_57483" x="-45.6881" y="30.4598" width="421.384" height="421.385" filterUnits="userSpaceOnUse" color-interpolation-filters="sRGB">
<feFlood flood-opacity="0" result="BackgroundImageFix"/>
<feBlend mode="normal" in="SourceGraphic" in2="BackgroundImageFix" result="shape"/>
<feGaussianBlur stdDeviation="63.4615" result="effect1_foregroundBlur_2098_57483"/>
</filter>
<filter id="filter2_f_2098_57483" x="78.9069" y="155.072" width="172.182" height="172.182" filterUnits="userSpaceOnUse" color-interpolation-filters="sRGB">
<feFlood flood-opacity="0" result="BackgroundImageFix"/>
<feBlend mode="normal" in="SourceGraphic" in2="BackgroundImageFix" result="shape"/>
<feGaussianBlur stdDeviation="19.0385" result="effect1_foregroundBlur_2098_57483"/>
</filter>
<filter id="filter3_f_2098_57483" x="84.0248" y="160.165" width="161.966" height="161.966" filterUnits="userSpaceOnUse" color-interpolation-filters="sRGB">
<feFlood flood-opacity="0" result="BackgroundImageFix"/>
<feBlend mode="normal" in="SourceGraphic" in2="BackgroundImageFix" result="shape"/>
<feGaussianBlur stdDeviation="19.0385" result="effect1_foregroundBlur_2098_57483"/>
</filter>
<filter id="filter4_f_2098_57483" x="164.918" y="227.415" width="133.437" height="103.634" filterUnits="userSpaceOnUse" color-interpolation-filters="sRGB">
<feFlood flood-opacity="0" result="BackgroundImageFix"/>
<feBlend mode="normal" in="SourceGraphic" in2="BackgroundImageFix" result="shape"/>
<feGaussianBlur stdDeviation="2.53846" result="effect1_foregroundBlur_2098_57483"/>
</filter>
<filter id="filter5_f_2098_57483" x="159.491" y="233.067" width="119.537" height="111.987" filterUnits="userSpaceOnUse" color-interpolation-filters="sRGB">
<feFlood flood-opacity="0" result="BackgroundImageFix"/>
<feBlend mode="normal" in="SourceGraphic" in2="BackgroundImageFix" result="shape"/>
<feGaussianBlur stdDeviation="2.53846" result="effect1_foregroundBlur_2098_57483"/>
</filter>
<linearGradient id="paint0_linear_2098_57483" x1="165" y1="0" x2="165" y2="435.346" gradientUnits="userSpaceOnUse">
<stop stop-color="#EEEFF7"/>
<stop offset="1" stop-color="#F9F9FF"/>
</linearGradient>
<linearGradient id="paint1_linear_2098_57483" x1="164.998" y1="12.6875" x2="164.998" y2="422.649" gradientUnits="userSpaceOnUse">
<stop stop-color="#FBFBFD"/>
<stop offset="1" stop-color="#E8E9F3"/>
</linearGradient>
<linearGradient id="paint2_linear_2098_57483" x1="164.363" y1="50.7656" x2="164.363" y2="384.573" gradientUnits="userSpaceOnUse">
<stop stop-color="#7D82FF" stop-opacity="0.3"/>
<stop offset="0.635" stop-color="#FFF5D1" stop-opacity="0.7"/>
<stop offset="1" stop-color="white"/>
</linearGradient>
<linearGradient id="paint3_linear_2098_57483" x1="113.001" y1="219.57" x2="113.001" y2="404.876" gradientUnits="userSpaceOnUse">
<stop stop-color="#C9C6EE"/>
<stop offset="0.42" stop-color="#BCBFFF"/>
<stop offset="1" stop-color="#E6DFE0"/>
</linearGradient>
<linearGradient id="paint4_linear_2098_57483" x1="551.484" y1="233.531" x2="551.484" y2="418.837" gradientUnits="userSpaceOnUse">
<stop stop-color="#DAD6E3"/>
<stop offset="0.595" stop-color="#BCBFFF"/>
</linearGradient>
<linearGradient id="paint5_linear_2098_57483" x1="119.004" y1="261.461" x2="119.004" y2="446.767" gradientUnits="userSpaceOnUse">
<stop stop-color="#F2ECE8"/>
<stop offset="1" stop-color="#ABADFF"/>
</linearGradient>
<linearGradient id="paint6_linear_2098_57483" x1="461.988" y1="280.5" x2="461.988" y2="465.806" gradientUnits="userSpaceOnUse">
<stop stop-color="#FFF8E0"/>
<stop offset="0.97" stop-color="#C0C3FF"/>
</linearGradient>
<linearGradient id="paint7_linear_2098_57483" x1="421.379" y1="324.922" x2="421.379" y2="510.228" gradientUnits="userSpaceOnUse">
<stop stop-color="#FFFBED"/>
<stop offset="0.475" stop-color="#F1EEF2"/>
</linearGradient>
<linearGradient id="paint8_linear_2098_57483" x1="182.773" y1="262.097" x2="189.754" y2="296.366" gradientUnits="userSpaceOnUse">
<stop offset="0.451392" stop-color="#D9DBE6"/>
<stop offset="1" stop-color="#FFEDAA"/>
</linearGradient>
<linearGradient id="paint9_linear_2098_57483" x1="207.521" y1="266.542" x2="182.304" y2="280.981" gradientUnits="userSpaceOnUse">
<stop stop-color="#63698D"/>
<stop offset="1" stop-color="#A6AAC0"/>
</linearGradient>
<linearGradient id="paint10_linear_2098_57483" x1="216.405" y1="288.75" x2="220.888" y2="338.247" gradientUnits="userSpaceOnUse">
<stop offset="0.417313" stop-color="#D9DBE6"/>
<stop offset="1" stop-color="#FFEDAA"/>
</linearGradient>
<linearGradient id="paint11_linear_2098_57483" x1="247.499" y1="291.918" x2="208.054" y2="317.004" gradientUnits="userSpaceOnUse">
<stop stop-color="#63698D"/>
<stop offset="1" stop-color="#A6AAC0"/>
</linearGradient>
<linearGradient id="paint12_linear_2098_57483" x1="218.311" y1="232.274" x2="189.118" y2="287.486" gradientUnits="userSpaceOnUse">
<stop stop-color="#EEF0FA"/>
<stop offset="1" stop-color="#D1D4E3"/>
</linearGradient>
<linearGradient id="paint13_linear_2098_57483" x1="152.942" y1="205.613" x2="173.884" y2="189.113" gradientUnits="userSpaceOnUse">
<stop offset="0.222411" stop-color="#CFD0D9" stop-opacity="0"/>
<stop offset="1" stop-color="#585963"/>
</linearGradient>
<linearGradient id="paint14_linear_2098_57483" x1="184.673" y1="241.785" x2="151.44" y2="238.818" gradientUnits="userSpaceOnUse">
<stop stop-color="#8387F2"/>
<stop offset="1" stop-color="#9AAAFF"/>
</linearGradient>
<linearGradient id="paint15_linear_2098_57483" x1="162.464" y1="231.005" x2="199.907" y2="179.601" gradientUnits="userSpaceOnUse">
<stop stop-color="#D9DBE6"/>
<stop offset="0.76264" stop-color="#FFF5D1"/>
</linearGradient>
<clipPath id="clip0_2098_57483">
<rect width="330" height="436" fill="white"/>
</clipPath>
</defs>
</svg>
