<svg width="17" height="64" viewBox="0 0 17 64" fill="none" xmlns="http://www.w3.org/2000/svg">
<path fill-rule="evenodd" clip-rule="evenodd" d="M11.8771 45C13.4975 45 14.8251 43.7132 14.8756 42.0935L16.0922 3.09354C16.145 1.40085 14.7872 0 13.0937 0H3.09378C1.40027 0 0.0424369 1.40086 0.0952395 3.09354L1.31183 42.0935C1.36235 43.7132 2.68993 45 4.31037 45H11.8771ZM8.09373 64C12.0056 64 15.1769 60.866 15.1769 57C15.1769 53.134 12.0056 50 8.09373 50C4.18183 50 1.01061 53.134 1.01061 57C1.01061 60.866 4.18183 64 8.09373 64Z" fill="#7D82FF"/>
</svg>
