<svg width="28" height="28" viewBox="0 0 28 28" fill="none" xmlns="http://www.w3.org/2000/svg">
<rect width="27.745" height="27.7457" rx="5.54334" fill="url(#paint0_linear_380_6309)"/>
<path d="M7.37554 8.90937C8.41505 8.90937 9.15732 8.16707 9.15732 7.12754C9.15732 6.088 8.41505 5.3457 7.37554 5.3457C6.33603 5.3457 5.59375 6.088 5.59375 7.12754C5.59375 8.16707 6.33603 8.90937 7.37554 8.90937Z" fill="white"/>
<path d="M21.7453 20.7294L20.4679 22.0053C20.2809 22.1922 19.977 22.1922 19.7901 22.0053L13.1167 15.3318C12.9298 15.1449 12.9298 14.8409 13.1167 14.654L14.3942 13.3765C14.5811 13.1896 14.885 13.1896 15.0719 13.3765L21.7453 20.0533C21.9322 20.2402 21.9322 20.5425 21.7453 20.7311V20.7294Z" fill="white"/>
<path d="M21.878 8.87829V10.6635C21.878 10.9292 21.6664 11.1414 21.4087 11.1414H11.2462V21.9226C11.2462 22.1883 11.0346 22.4005 10.7769 22.4005H8.60212C8.34281 22.4005 8.13281 22.1867 8.13281 21.9226V11.2889C8.13281 11.1949 8.17258 11.1058 8.24258 11.0442L11.1555 8.47977C11.2128 8.42955 11.2875 8.40039 11.3639 8.40039H21.4087C21.6664 8.40039 21.878 8.61585 21.878 8.87829Z" fill="white"/>
<defs>
<linearGradient id="paint0_linear_380_6309" x1="13.8725" y1="0" x2="13.8725" y2="56.8093" gradientUnits="userSpaceOnUse">
<stop stop-color="#7D82FF"/>
<stop offset="1" stop-color="#D2D9FF"/>
</linearGradient>
</defs>
</svg>
