<svg xmlns="http://www.w3.org/2000/svg" width="21" height="18" viewBox="0 0 21 18" fill="none">
  <g clip-path="url(#clip0_167_3151)">
    <path d="M6.09243 0.518267L8.85569 8.21051H14.1094L8.51042 0.166062C8.43801 0.0620234 8.31927 0 8.19251 0H6.45694C6.18879 0 6.00177 0.265907 6.09243 0.518267Z" fill="white"/>
    <path d="M6.09243 17.4817L8.85569 9.78949H14.1094L8.51042 17.8339C8.43801 17.938 8.31927 18 8.19251 18H6.45694C6.18879 18 6.00177 17.7341 6.09243 17.4817Z" fill="white"/>
    <path d="M3.28125 7.57855H19.7368C20.4345 7.57855 21 8.14409 21 8.84171V8.84171C21 9.53933 20.4345 10.1049 19.7368 10.1049H3.28125V7.57855Z" fill="white"/>
    <path d="M2.1809 5.61284L3.60938 8.20963V9.63068L0.959239 8.28042C0.871322 8.23562 0.8082 8.15368 0.787324 8.05724L0.147711 5.10252C0.0889031 4.83086 0.373084 4.6135 0.619873 4.7414L2.04423 5.47952C2.10198 5.50945 2.14955 5.55585 2.1809 5.61284Z" fill="white"/>
    <path d="M2.1809 12.2275L3.60938 9.6307V8.20965L0.959239 9.55991C0.871322 9.60471 0.8082 9.68665 0.787324 9.78309L0.147711 12.7378C0.0889031 13.0095 0.373084 13.2268 0.619873 13.0989L2.04423 12.3608C2.10198 12.3309 2.14955 12.2845 2.1809 12.2275Z" fill="white"/>
  </g>
  <defs>
    <clipPath id="clip0_167_3151">
      <rect width="21" height="18" fill="white"/>
    </clipPath>
  </defs>
</svg>