<svg width="122" height="114" viewBox="0 0 122 114" fill="none" xmlns="http://www.w3.org/2000/svg">
<path d="M54.0627 11.0149C57.1891 5.95491 64.5478 5.9549 67.6741 11.0149L106.041 73.1105C109.334 78.4403 105.5 85.3156 99.2352 85.3156H22.5016C16.2366 85.3156 12.4028 78.4403 15.6959 73.1105L54.0627 11.0149Z" fill="#ADB1FF"/>
<path d="M64.1979 33.1787L63.6704 60.6124H58.0504L57.5229 33.1787H64.1979ZM60.8706 72.0447C59.7479 72.0447 58.7876 71.6812 57.9896 70.9541C57.1916 70.2145 56.7993 69.3245 56.8128 68.2841C56.7993 67.2562 57.1916 66.3787 57.9896 65.6516C58.7876 64.912 59.7479 64.5423 60.8706 64.5423C61.9661 64.5423 62.913 64.912 63.711 65.6516C64.509 66.3787 64.9148 67.2562 64.9283 68.2841C64.9148 68.9735 64.7186 69.6066 64.3399 70.1832C63.9747 70.7473 63.4878 71.1985 62.8791 71.537C62.2705 71.8755 61.601 72.0447 60.8706 72.0447Z" fill="white"/>
</svg>
