<svg width="24" height="24" viewBox="0 0 24 24" fill="none" xmlns="http://www.w3.org/2000/svg">
<g clip-path="url(#clip0_1801_36689)">
<path fill-rule="evenodd" clip-rule="evenodd" d="M14 2.00009C14 1.54832 13.6971 1.15265 13.261 1.03475C12.8249 0.916842 12.3639 1.10599 12.1362 1.49622L5.13622 13.4962C4.9558 13.8055 4.95452 14.1877 5.13286 14.4982C5.3112 14.8086 5.64193 15.0001 6 15.0001H10V22.0001C10 22.4519 10.3029 22.8475 10.739 22.9654C11.1751 23.0833 11.6361 22.8942 11.8638 22.504L18.8638 10.504C19.0442 10.1947 19.0455 9.81252 18.8671 9.50203C18.6888 9.19154 18.3581 9.00009 18 9.00009H14V2.00009Z" fill="#292929"/>
</g>
<defs>
<clipPath id="clip0_1801_36689">
<rect width="24" height="24" fill="white"/>
</clipPath>
</defs>
</svg>
