<svg width="24" height="24" viewBox="0 0 24 24" fill="none" xmlns="http://www.w3.org/2000/svg">
<g clip-path="url(#clip0_1801_36679)">
<path fill-rule="evenodd" clip-rule="evenodd" d="M18.2071 4.79275C14.779 1.36466 9.22096 1.36466 5.79287 4.79275C2.36478 8.22084 2.36478 13.7789 5.79287 17.207L11.2929 22.707C11.4804 22.8945 11.7348 22.9999 12 22.9999C12.2652 22.9999 12.5195 22.8945 12.7071 22.707L18.2071 17.207C21.6352 13.7789 21.6352 8.22083 18.2071 4.79275ZM10.5 10.9999C10.5 10.1714 11.1715 9.49985 12 9.49985H12.01C12.8384 9.49985 13.51 10.1714 13.51 10.9999V11.0099C13.51 11.8383 12.8384 12.5099 12.01 12.5099H12C11.1715 12.5099 10.5 11.8383 10.5 11.0099V10.9999Z" fill="#292929"/>
</g>
<defs>
<clipPath id="clip0_1801_36679">
<rect width="24" height="24" fill="white"/>
</clipPath>
</defs>
</svg>
