<svg width="24" height="24" viewBox="0 0 24 24" fill="none" xmlns="http://www.w3.org/2000/svg">
<g clip-path="url(#clip0_1801_36680)">
<path fill-rule="evenodd" clip-rule="evenodd" d="M9.68489 4.6276C12.0841 3.75811 14.8721 4.2866 16.7927 6.20728C18.7134 8.12796 19.2419 10.916 18.3724 13.3151C18.1842 13.8344 18.4526 14.4079 18.9719 14.596C19.4911 14.7842 20.0646 14.5158 20.2527 13.9966C21.3768 10.895 20.6968 7.28293 18.207 4.79307C15.7171 2.3032 12.1051 1.62321 9.00343 2.74728C8.48419 2.93546 8.21582 3.50893 8.404 4.02817C8.59218 4.54741 9.16565 4.81578 9.68489 4.6276ZM4.7031 6.11751L3.29289 4.70731C2.90237 4.31678 2.90237 3.68362 3.29289 3.29309C3.68342 2.90257 4.31658 2.90257 4.70711 3.29309L6.71981 5.3058C6.72689 5.31267 6.73385 5.31963 6.74068 5.32667L17.7003 16.2863C17.7025 16.2885 17.7048 16.2907 17.7071 16.293C17.7093 16.2952 17.7115 16.2975 17.7138 16.2998L20.7071 19.2931C21.0976 19.6836 21.0976 20.3168 20.7071 20.7073C20.3166 21.0978 19.6834 21.0978 19.2929 20.7073L16.9999 18.4143L12.707 22.7073C12.5194 22.8948 12.2651 23.0002 11.9999 23.0002C11.7346 23.0002 11.4803 22.8948 11.2927 22.7073L5.79275 17.2073C2.77755 14.1921 2.41452 9.53015 4.7031 6.11751Z" fill="#292929"/>
</g>
<defs>
<clipPath id="clip0_1801_36680">
<rect width="24" height="24" fill="white"/>
</clipPath>
</defs>
</svg>
