<svg width="24" height="24" viewBox="0 0 24 24" fill="none" xmlns="http://www.w3.org/2000/svg">
<g clip-path="url(#clip0_1801_36707)">
<path fill-rule="evenodd" clip-rule="evenodd" d="M11.5353 3.51863C11.6874 3.1844 11.644 2.79371 11.4224 2.50095C11.2008 2.20818 10.8365 2.06042 10.4736 2.11606C5.67498 2.85164 2 6.99582 2 12.0002C2 17.523 6.47715 22.0002 12 22.0002C17.5228 22.0002 22 17.523 22 12.0002C22 11.9066 21.9987 11.8134 21.9962 11.7204C21.986 11.353 21.7752 11.0208 21.4471 10.8551C21.119 10.6895 20.7265 10.7173 20.4249 10.9274C19.454 11.6037 18.2748 12.0002 17 12.0002C13.6863 12.0002 11 9.31387 11 6.00016C11 5.11314 11.1918 4.27364 11.5353 3.51863Z" fill="#292929"/>
</g>
<defs>
<clipPath id="clip0_1801_36707">
<rect width="24" height="24" fill="white"/>
</clipPath>
</defs>
</svg>
