<svg width="24" height="24" viewBox="0 0 24 24" fill="none" xmlns="http://www.w3.org/2000/svg">
<g clip-path="url(#clip0_1801_36711)">
<path fill-rule="evenodd" clip-rule="evenodd" d="M15 3.99951C15 3.44723 15.4477 2.99951 16 2.99951H18C19.6569 2.99951 21 4.34266 21 5.99951V7.99951C21 8.5518 20.5523 8.99951 20 8.99951C19.4477 8.99951 19 8.5518 19 7.99951V5.99951C19 5.44723 18.5523 4.99951 18 4.99951H16C15.4477 4.99951 15 4.5518 15 3.99951ZM3.00001 11.9998C3.00001 11.1713 3.67158 10.4998 4.50001 10.4998H19.5C20.3284 10.4998 21 11.1713 21 11.9998C21 12.8282 20.3284 13.4998 19.5 13.4998H4.50001C3.67158 13.4998 3.00001 12.8282 3.00001 11.9998ZM8 20.9995C8.55228 20.9995 9 20.5518 9 19.9995C9 19.4472 8.55228 18.9995 8 18.9995H6C5.44772 18.9995 5 18.5518 5 17.9995V15.9995C5 15.4472 4.55229 14.9995 4 14.9995C3.44772 14.9995 3 15.4472 3 15.9995V17.9995C3 19.6564 4.34315 20.9995 6 20.9995H8ZM20 14.9995C20.5523 14.9995 21 15.4472 21 15.9995V17.9995C21 19.6564 19.6569 20.9995 18 20.9995H16C15.4477 20.9995 15 20.5518 15 19.9995C15 19.4472 15.4477 18.9995 16 18.9995H18C18.5523 18.9995 19 18.5518 19 17.9995V15.9995C19 15.4472 19.4477 14.9995 20 14.9995ZM3 7.99951C3 8.5518 3.44772 8.99951 4 8.99951C4.55228 8.99951 5 8.5518 5 7.99951L5 5.99951C5 5.44723 5.44772 4.99951 6 4.99951L8 4.99951C8.55229 4.99951 9 4.5518 9 3.99951C9 3.44723 8.55229 2.99951 8 2.99951H6C4.34315 2.99951 3 4.34266 3 5.99951V7.99951Z" fill="#292929"/>
</g>
<defs>
<clipPath id="clip0_1801_36711">
<rect width="24" height="24" fill="white"/>
</clipPath>
</defs>
</svg>
