<svg width="24" height="24" viewBox="0 0 24 24" fill="none" xmlns="http://www.w3.org/2000/svg">
<g clip-path="url(#clip0_1801_36682)">
<path fill-rule="evenodd" clip-rule="evenodd" d="M12 1C12.3901 1 12.7446 1.22689 12.908 1.58115L15.7771 7.80125L22.5793 8.60777C22.9668 8.6537 23.2921 8.92075 23.4127 9.2918C23.5332 9.66284 23.427 10.0701 23.1406 10.335L19.3979 13.7961C18.9924 14.1711 18.3597 14.1464 17.9848 13.7409C17.6098 13.3354 17.6345 12.7027 18.04 12.3277L20.1909 10.3386L14.9857 9.72144C14.6404 9.68049 14.3411 9.46304 14.1954 9.14724L12 4.38751L11.5372 5.39093C11.3058 5.89244 10.7118 6.11146 10.2103 5.88014C9.70875 5.64882 9.48972 5.05474 9.72104 4.55324L11.0919 1.58115C11.2553 1.22689 11.6098 1 12 1ZM9.11034 7.69603L9.4534 8.03909L18.3213 16.907L18.5359 17.1216L20.7072 19.2929C21.0977 19.6834 21.0977 20.3166 20.7072 20.7071C20.3167 21.0976 19.6835 21.0976 19.293 20.7071L19.2372 20.6513L19.4464 21.7043C19.5225 22.087 19.369 22.4789 19.0534 22.7082C18.7378 22.9375 18.3176 22.9623 17.9772 22.7718L12 19.426L6.02279 22.7718C5.68236 22.9623 5.26219 22.9375 4.94656 22.7082C4.63094 22.4789 4.47749 22.087 4.55352 21.7043L5.88849 14.9857L0.859413 10.335C0.572982 10.0701 0.46675 9.66284 0.587308 9.2918C0.707867 8.92075 1.0332 8.6537 1.42062 8.60777L6.58172 7.99584L3.29299 4.70711C2.90246 4.31658 2.90246 3.68342 3.29299 3.29289C3.68351 2.90237 4.31668 2.90237 4.7072 3.29289L9.11034 7.69603Z" fill="#292929"/>
</g>
<defs>
<clipPath id="clip0_1801_36682">
<rect width="24" height="24" fill="white"/>
</clipPath>
</defs>
</svg>
